<?xml version="1.0" standalone="no"?>
<!DOCTYPE svg PUBLIC "-//W3C//DTD SVG 1.1//EN" "http://www.w3.org/Graphics/SVG/1.1/DTD/svg11.dtd" >
<svg xmlns="http://www.w3.org/2000/svg">
<metadata></metadata>
<defs>
<font id="bodoniclassic-italicregular" horiz-adv-x="506" >
<font-face units-per-em="1000" ascent="800" descent="-200" />
<missing-glyph horiz-adv-x="234" />
<glyph horiz-adv-x="0" />
<glyph horiz-adv-x="0" />
<glyph horiz-adv-x="333" />
<glyph unicode="&#xd;" horiz-adv-x="234" />
<glyph unicode=" "  horiz-adv-x="234" />
<glyph unicode="&#x09;" horiz-adv-x="234" />
<glyph unicode="&#xa0;" horiz-adv-x="234" />
<glyph unicode="!" horiz-adv-x="308" d="M296 584q-31 -41 -77.5 -148t-92.5 -266q-1 -3 -3.5 -2.5t-4.5 2.5t-2 4q57 209 64 351q3 48 4 57q1 4 3 6q47 57 87 132q2 6 7 4q4 -2 3 -8q0 -15 1 -31t1 -24q0 -29 10 -71v-6zM146 66q0 -29 -15.5 -50.5t-41.5 -21.5q-21 0 -34 15t-13 38q0 28 15.5 50.5t39.5 22.5 q21 0 35 -16t14 -38z" />
<glyph unicode="&#x22;" horiz-adv-x="339" d="M299 683q0 -4 -0.5 -9.5t-3 -19.5t-5 -34t-7.5 -60.5t-11 -92.5q-3 -27 -7 -27t-7 27q-6 52 -10.5 92.5t-7.5 60.5t-5 34t-2.5 19.5t-0.5 9.5q0 54 34 54q33 0 33 -54zM161 681q0 -4 -0.5 -9.5t-3 -19.5t-5 -34t-7.5 -60.5t-11 -92.5q-3 -27 -7 -27t-7 27 q-6 52 -10.5 92.5t-7.5 60.5t-5 34t-2.5 19.5t-0.5 9.5q0 54 34 54q33 0 33 -54z" />
<glyph unicode="#" horiz-adv-x="493" d="M484 472q23 0 31 -12.5t-2.5 -25t-30.5 -12.5h-94q-9 -70 -21 -156l99 2q28 1 30 -20q0 -20 -20 -28q-8 -2 -16 -2l-98 2l-26 -206q-3 -26 -26 -37t-28 13q-2 9 0 24l31 206l-135 -1l-24 -203q-4 -31 -26 -38q-21 -8 -27 15q-3 10 -1 23l28 203l-82 -1q-25 0 -34 12.5 t2 25t32 12.5l89 -2l20 155l-88 -1q-34 -1 -40 20q-5 19 19 28q11 4 25 4l90 -2l28 217q4 30 27 37q20 7 25 -16q2 -8 0 -19l-30 -219h134l26 216q4 37 28 42q19 4 26 -19q3 -10 1 -23l-31 -216zM339 422l-134 -1l-21 -155h135z" />
<glyph unicode="$" horiz-adv-x="531" d="M532 686q-42 -128 -53 -206q-1 -4 -8 -2.5t-7 5.5q9 45 9 75q0 54 -27.5 89t-74.5 45l-65 -264q30 -13 46 -20.5t41 -24.5t38 -34t23 -44.5t10 -61.5q0 -31 -7 -64t-25 -67.5t-44.5 -61t-68.5 -43.5t-94 -17q-16 0 -28 3l-38 -150q-2 -3 -8 -1t-5 6l35 148 q-30 5 -71.5 28.5t-56.5 23.5q-26 0 -39 -46q-2 -9 -11 -3q-4 3 -2 6q41 127 63 250q2 4 8.5 2.5t6.5 -5.5q-12 -50 -12 -87q0 -56 33 -97.5t86 -54.5l78 315q-60 24 -92.5 58t-32.5 102q0 90 52 157t148 67q14 0 20 -2l31 121q1 2 4.5 1.5t6.5 -2.5t3 -4l-29 -118 q33 -7 66.5 -29t45.5 -22q7 0 12 2t8 7l4.5 7.5t2.5 9.5l2 7q0 2 4 2.5t8 -1.5t4 -5zM355 694q-7 2 -21 2q-62 0 -109.5 -41.5t-47.5 -103.5q0 -44 28.5 -68.5t85.5 -47.5zM403 182q0 31 -9 53.5t-29.5 39t-37.5 25t-48 21.5l-78 -312q17 -3 33 -3q77 0 123 50.5t46 125.5z " />
<glyph unicode="%" horiz-adv-x="838" d="M390 609q4 -39 -4.5 -78.5t-27.5 -74t-55 -55t-82 -17.5q-49 2 -84 38t-37 85q-2 28 2 57.5t17 60t32.5 53.5t53.5 36.5t77 10.5q49 -4 76.5 -35.5t31.5 -80.5zM764 224q4 -39 -4.5 -78.5t-27.5 -74t-55 -55t-82 -17.5q-49 2 -84 38t-37 85q-2 28 2 57.5t17 60t32.5 53.5 t53.5 36.5t77 10.5q49 -4 76.5 -35.5t31.5 -80.5zM642 701q-162 -263 -404 -695q-18 -31 -35 -24q-15 7 -4 31q2 3 4 7q51 81 116 194t153.5 271t128.5 229q15 26 36 25q18 -1 12 -22q-2 -8 -7 -16zM364 658q-28 53 -80 55q-34 1 -62.5 -30t-41.5 -77t-15.5 -93t13 -81.5 t45.5 -37.5q36 -4 67 14t50 50t29.5 68.5t9 72t-14.5 59.5zM738 273q-28 53 -80 55q-34 1 -62.5 -30t-41.5 -77t-15.5 -93t13 -81.5t45.5 -37.5q36 -4 67 14t50 50t29.5 68.5t9 72t-14.5 59.5z" />
<glyph unicode="&#x26;" horiz-adv-x="658" d="M632 253q0 -22 -13 -39t-35 -17q-26 0 -38.5 15.5t-12.5 35.5q0 5 1 13t1 11q0 12 -12 12q-14 0 -47.5 -35t-48.5 -59q-3 -7 1 -13q43 -80 67 -105q29 -30 59 -30q19 0 35.5 20.5t9.5 60.5q-1 7 4 7q6 0 7 -15q11 -47 -21.5 -87.5t-83.5 -39.5q-42 1 -72.5 33t-57.5 84 q-5 7 -8 1l-48 -51q-21 -23 -56 -45t-75 -22q-49 0 -94.5 47t-45.5 126q0 69 47.5 120.5t145.5 92.5q9 5 6 13q-18 36 -18 101q0 42 12 74.5t28.5 50t37.5 28.5t35.5 14t25.5 3q41 0 69 -25.5t28 -73.5q0 -44 -28 -81t-68 -56l-36 -17q-7 -4 -4 -13q58 -142 87 -191 q2 -6 6 1q27 46 65.5 79t76.5 33q35 0 51.5 -17t16.5 -44zM450 557q0 39 -19.5 62t-53.5 23q-32 0 -51.5 -20.5t-24.5 -42t-5 -45.5q0 -58 23 -116q3 -5 4 -5q2 0 4 2l42 19q26 12 53.5 48t27.5 75zM360 130q-63 116 -104 230q-2 8 -11 2q-57 -27 -88.5 -59.5t-31.5 -87.5 q0 -68 44 -120.5t81 -52.5q44 0 93 57l16 19q5 4 1 12z" />
<glyph unicode="'" horiz-adv-x="229" d="M183 665q0 -4 -0.5 -9.5t-3 -19.5t-5 -34t-7.5 -60.5t-11 -92.5q-3 -27 -7 -27t-7 27q-6 52 -10.5 92.5t-7.5 60.5t-5 34t-2.5 19.5t-0.5 9.5q0 54 34 54q33 0 33 -54z" />
<glyph unicode="(" horiz-adv-x="322" d="M411 734q-179 -126 -264 -447q-83 -310 13 -526q6 -13 -1 -16.5t-13 9.5q-118 249 -40 543q82 301 299 451q14 7 14 -2q0 -6 -8 -12z" />
<glyph unicode=")" horiz-adv-x="249" d="M204 200q-82 -303 -299 -452q-14 -7 -14 2q0 6 8 12q179 126 264 448q82 306 -13 521q-6 13 1 16.5t13 -9.5q118 -247 40 -538z" />
<glyph unicode="*" horiz-adv-x="433" d="M424 462q-15 -1 -41.5 8.5t-36.5 10.5q-26 3 -78 -1q39 -61 76 -89l12 -7q11 -8 17.5 -14t7.5 -10q4 -9 -4.5 -15t-22.5 -2q24 -31 12 -45q-11 -14 -35 12q-6 7 -12 15q1 -17 -7 -22.5t-16 0.5q-3 2 -4.5 7t-1.5 11.5v7.5q0 72 -33 140q-51 -58 -65 -119q0 -26 -14 -32 q-7 -3 -14.5 5t-4.5 19q-17 -18 -32.5 -17.5t-14.5 14.5t19 32q-12 -4 -22 1.5t-7 14.5q1 5 5 8t7.5 4t9.5 2t7 1q61 19 115 76q-48 18 -87 22q-10 1 -33 0.5t-33 1.5q-15 -1 -17 14q4 16 23 19q-33 14 -32 33q2 16 25 12q11 -2 25 -10q-10 22 2.5 28.5t24.5 -5.5 q2 -1 13 -15t23.5 -30t16.5 -20q22 -18 52 -37q10 77 -17 133q-9 18 -9 27q2 14 13 16t21 -14q5 36 22 39q12 3 16 -16q3 -13 1 -31q10 16 21 13.5t11 -17.5q0 -2 -27 -45q-30 -64 -38 -104q83 18 125 65q9 9 16 12q15 4 18.5 -8.5t-9.5 -23.5q35 8 42 -8q8 -16 -23 -30 q-7 -3 -14 -5q16 1 18 -14t-12 -18z" />
<glyph unicode="+" horiz-adv-x="533" d="M477 237q-95 9 -189 9q-1 -21 3.5 -103t5.5 -112q0 -20 -14.5 -28.5t-29 -0.5t-14.5 28q1 25 6 107t3 109q-18 1 -49 -0.5t-75 -4.5t-70 -4q-23 -1 -31.5 14.5t1 30.5t31.5 15q26 -1 95.5 -6t96.5 -3q1 18 0 50.5t-4 80.5t-4 74q-1 22 14 31t30 0t14 -31q-1 -24 -4 -65.5 t-4.5 -72.5t-0.5 -67q31 -1 61.5 0.5t66 4.5t60.5 4q22 1 30.5 -15t0 -31.5t-29.5 -13.5z" />
<glyph unicode="," horiz-adv-x="204" d="M143 19q0 -30 -9.5 -58t-23 -48t-33 -40t-33 -30.5t-29.5 -22t-18 -12.5q-5 -2 -8 2.5t1 7.5q1 1 19 13.5t33 26t33.5 33t29.5 43.5t11 48t-6 24q-2 0 -13.5 -6t-27.5 -6q-23 0 -37 14.5t-14 40.5q0 25 15 42t38 17q33 0 52.5 -25.5t19.5 -63.5z" />
<glyph unicode="-" horiz-adv-x="320" d="M263 206q-96 12 -193 0q-36 -5 -45 22q-7 22 14 34q13 8 32 5q66 -9 101.5 -9.5t89.5 8.5q37 7 47 -18q10 -22 -11 -36q-13 -9 -35 -6z" />
<glyph unicode="." horiz-adv-x="185" d="M132 66q0 -29 -15.5 -50.5t-41.5 -21.5q-21 0 -34 15t-13 38q0 28 15.5 50.5t40.5 22.5q21 0 34.5 -16t13.5 -38z" />
<glyph unicode="/" horiz-adv-x="263" d="M311 684q-29 -45 -170 -342.5t-159 -348.5q-9 -28 -34 -25q-20 3 -23 22q-2 12 8 25q34 45 174 343.5t151 346.5q7 30 32 28q21 -1 27 -21q3 -14 -6 -28z" />
<glyph unicode="0" horiz-adv-x="540" d="M532 377q7 -67 -7 -134.5t-47 -126.5t-94.5 -94t-140.5 -31q-85 4 -145 65.5t-65 145.5q-3 49 4 99t28.5 102.5t56 92t92.5 62.5t131 18q85 -6 132 -60.5t55 -138.5zM492 461q-14 27 -27 45t-43.5 36t-71.5 19q-114 3 -180 -131.5t-45 -274.5t121 -150q68 -7 123.5 24.5 t87.5 86t48.5 118t12.5 125t-26 102.5z" />
<glyph unicode="1" horiz-adv-x="414" d="M428 554q5 1 6 -6q0 -11 -8 -11q-60 4 -88 2q-2 0 -4 -5l-120 -515q-1 -4 3 -4q37 -2 89 1q7 1 7 -6q0 -10 -12 -10q-135 3 -270 0q-4 -1 -5 4q-2 11 4 13h3q61 -4 89 -2q1 0 34.5 134.5t64 265t25.5 120.5q1 4 -3 4q-38 2 -89 -1q-8 -1 -8 6q2 9 12 10q136 -3 270 0z " />
<glyph unicode="2" horiz-adv-x="540" d="M514 148q-31 -40 -46 -64.5t-38 -71.5q-4 -8 -10 -11q-104 7 -239 3q0 1 -63 -1q-93 -2 -93 1q24 15 99 76t95 80q18 18 49 45t50.5 45t40.5 43.5t33 53.5t15 61q6 70 -28.5 107.5t-88.5 35.5q-60 -1 -102.5 -36t-47.5 -83q-5 -55 32 -87q17 -13 19 -4q-10 53 27 75 q30 17 54 -3q14 -12 17 -34q2 -12 -10 -31t-34 -28q-40 -16 -76.5 4t-44.5 66q-15 82 42 134.5t150 50.5q86 -2 137.5 -53.5t44.5 -142.5q-4 -50 -40 -94.5t-77 -71t-106 -65.5t-96 -62l-4 -3l-12 -8h1q107 1 280 9q4 0 11.5 9.5t21.5 28.5t24 32q3 13 12 9q10 -5 3 -13z " />
<glyph unicode="3" horiz-adv-x="502" d="M463 454q0 -60 -47 -108.5t-103 -75.5h1q45 0 93.5 -50.5t48.5 -121.5q0 -100 -93 -178.5t-198 -75.5q-167 5 -167 131q0 33 21.5 58t51.5 25q20 0 33.5 -15t13.5 -37q0 -21 -12.5 -35.5t-29.5 -14.5q-10 0 -19.5 3.5t-15.5 3.5q-21 0 -21 -21q0 -28 35.5 -55t83.5 -27 q98 0 158 81t60 179q0 32 -8.5 55.5t-20 37t-31 22t-34 11.5t-36.5 6q-7 2 7 8q20 8 24 10q137 69 129 196q-4 46 -33 71.5t-64 24.5q-37 -1 -63.5 -21t-26.5 -36q0 -6 3.5 -9t15.5 -5q26 -6 26 -33q0 -17 -11 -28t-26 -11q-21 0 -30 13.5t-9 29.5q0 55 41 83.5t90 29.5 q68 1 115.5 -29t47.5 -92z" />
<glyph unicode="4" horiz-adv-x="562" d="M518 188q-1 -1 -7.5 -11t-12 -20.5t-13 -26t-14.5 -37t-13 -45.5q-1 -7 -9 -7q-61 0 -77 1q-7 0 -9 -7l-53 -180q-1 -1 1 -2.5t4 -1.5l76 1q8 1 8 -7t-9 -9h-3q-187 2 -250 0q-9 0 -11 9q0 7 7 8q3 1 6 0l80 -2q6 0 6 5l52 182q1 2 -0.5 3t-4.5 1h-268q-4 0 -5 9l467 505 q24 26 27 26q2 1 3 -2l-114 -471q-1 -2 0.5 -5.5t2.5 -3.5q59 -4 67 2q17 32 55 78q18 20 11 8zM406 457l-320 -340q-7 -11 -4.5 -13t13.5 -2h198q5 0 5 4z" />
<glyph unicode="5" horiz-adv-x="516" d="M480 575q-7 -66 -52.5 -98.5t-110.5 -32.5q-63 0 -126 20q-4 1 -5 -2l-33 -153q-2 -7 2.5 -13.5t12.5 -1.5q31 37 62.5 52.5t78.5 15.5q76 0 121 -46.5t45 -128.5q0 -47 -21.5 -101.5t-62 -107.5t-109.5 -90t-153 -41q-49 -2 -90 28.5t-41 83.5q0 33 15 53.5t37 20.5 q21 0 34.5 -14t13.5 -37q0 -19 -8 -31.5t-18 -17t-18 -10.5t-8 -15q0 -23 28.5 -35t64.5 -10q55 4 103 41.5t78 91.5t47 113.5t15 110.5q-2 56 -31.5 84t-75.5 28t-80.5 -30.5t-52.5 -78.5q-1 -3 -7.5 -4.5t-12.5 -1t-6 2.5l74 340q0 4 3 7.5t9 2.5q73 -42 166 -42 q66 0 110 47q0 4 2 0z" />
<glyph unicode="6" horiz-adv-x="544" d="M569 663q18 -26 10.5 -69.5t-34.5 -59.5q-16 -10 -34 -4t-29 26q-25 45 10 68q6 4 23.5 11t23.5 13.5t0 15.5q-14 21 -47.5 24.5t-76 -12.5t-77.5 -49q-4 -4 -18 -17t-17 -16l-14.5 -14.5t-15 -16.5t-13 -16.5t-14 -19.5t-12.5 -21.5t-13.5 -26.5t-13 -30t-14.5 -36 q0 -1 -2.5 -6.5t-4.5 -10.5t-1 -5q54 73 153 73q71 0 118 -48.5t47 -123.5q0 -110 -82 -205.5t-177 -95.5t-141.5 66t-46.5 172q0 74 34 167.5t98 178t139 116.5q27 12 67 20t94.5 -1t80.5 -47zM394 204q12 42 17.5 81t1.5 79t-29.5 63t-71.5 21q-35 -2 -63 -18.5t-48 -45 t-33 -58.5t-24 -70q-16 -65 -18.5 -120.5t27 -92t89.5 -35.5q95 2 152 196z" />
<glyph unicode="7" d="M535 566q-270 -307 -366 -451q-59 -89 -66 -132q-3 -17 7 -25t23 -9.5t22 -13t5 -35.5q-4 -23 -21 -38.5t-38 -15.5q-31 0 -41.5 24t-4.5 60q7 45 53 121.5t113.5 162t115.5 142.5t93 108l-1 2q-33 -18 -96.5 -27t-110.5 -9q-78 0 -134 20q-2 2 -3 -2l-36 -59 q-5 -6 -11 0q-3 2 0 5q55 101 90 181q2 4 8 0q4 -2 2 -5l-4 -8q-3 -3 1 -5q41 -31 176 -31q146 0 219 50q4 2 6 -2t-1 -8z" />
<glyph unicode="8" horiz-adv-x="544" d="M528 592q-4 -48 -28.5 -85t-55 -59t-90.5 -56q91 -96 82 -197q-3 -32 -18 -65.5t-41.5 -66t-72.5 -53t-103 -20.5q-81 0 -126 44.5t-39 114.5q6 68 66 129t133 87q-62 67 -55 152q3 39 28 82.5t76.5 78t116.5 34.5q62 0 97 -35.5t30 -84.5zM512 586q4 52 -29.5 81 t-86.5 29q-54 0 -97.5 -30.5t-47.5 -85.5q-1 -12 0 -23.5t5 -23.5t6.5 -20.5t11 -21t11.5 -18t14.5 -19.5t13.5 -16.5t15.5 -17.5t14.5 -16q0 -5 6 -1q81 43 120 86t43 97zM360 140q2 20 -2.5 41.5t-10 36.5t-21.5 37.5t-23.5 32t-28.5 34t-26 29.5q-2 3 -8 1 q-70 -26 -126 -80.5t-62 -123.5q-5 -60 34.5 -101t105.5 -41q61 0 110.5 34t57.5 100z" />
<glyph unicode="9" horiz-adv-x="558" d="M535 273q-9 -76 -43.5 -166.5t-85.5 -172.5t-122 -136t-143 -53q-145 3 -145 141q0 33 21.5 58t51.5 25q20 0 33.5 -15t13.5 -37q0 -21 -12.5 -35.5t-29.5 -14.5q-10 0 -19.5 3.5t-15.5 3.5q-21 0 -21 -21q0 -34 35.5 -63t95.5 -11q72 23 146 120.5t103 188.5q3 4 3 8 q-58 -78 -168 -78q-81 0 -127 44.5t-46 132.5q0 79 27 151t69.5 121.5t96 78.5t105.5 29q105 0 148.5 -86t28.5 -216zM464 384q0 69 -24 118.5t-74 51.5q-33 1 -60 -12t-47.5 -38.5t-32.5 -46.5t-25 -50q-27 -61 -39.5 -137t-12.5 -126q0 -109 107 -109q55 0 97.5 34.5 t65.5 89t34 112t11 113.5z" />
<glyph unicode=":" horiz-adv-x="219" d="M202 338q0 -29 -16 -50.5t-42 -21.5q-21 0 -34 15t-13 38q0 28 15.5 50.5t40.5 22.5q21 0 35 -16t14 -38zM132 66q0 -29 -15.5 -50.5t-41.5 -21.5q-21 0 -34 15t-13 38q0 28 15.5 50.5t40.5 22.5q21 0 34.5 -16t13.5 -38z" />
<glyph unicode=";" horiz-adv-x="214" d="M192 338q0 -29 -16 -50.5t-42 -21.5q-21 0 -34 15t-13 38q0 28 15.5 50.5t40.5 22.5q21 0 35 -16t14 -38zM143 19q0 -30 -9.5 -58t-23 -48t-33 -40t-33 -30.5t-29.5 -22t-18 -12.5q-7 -3 -9 4q-1 4 2 6q1 1 19 13.5t33 26t33.5 33t29.5 43.5t11 48t-6 24q-2 0 -13.5 -6 t-27.5 -6q-23 0 -37 14.5t-14 40.5q0 25 15 42t38 17q33 0 52.5 -25.5t19.5 -63.5z" />
<glyph unicode="&#x3c;" horiz-adv-x="538" d="M488 74q43 -16 48 -50q4 -28 -22 -37t-65 16q-226 144 -386 230q-13 7 -12.5 15t13.5 15q93 45 378 236q52 36 83 20q23 -12 8 -38q-13 -22 -50 -39l-395 -194q325 -147 400 -174z" />
<glyph unicode="=" horiz-adv-x="527" d="M473 277q-289 18 -422 0q-36 -5 -45 21q-7 22 14 35q13 7 32 5q185 -24 420 -1q31 3 44.5 -13t0.5 -32.5t-44 -14.5zM475 196q36 5 45 -21q7 -22 -14 -35q-13 -7 -32 -5q-185 24 -420 1q-31 -3 -44.5 13t-0.5 32.5t44 14.5q289 -18 422 0z" />
<glyph unicode="&#x3e;" horiz-adv-x="512" d="M484 269q13 -7 12.5 -15t-13.5 -15q-93 -45 -378 -236q-52 -36 -83 -20q-23 12 -8 38q13 22 50 39l395 194q-325 147 -400 174q-43 16 -48 50q-4 28 22 37t65 -16q226 -144 386 -230z" />
<glyph unicode="?" horiz-adv-x="361" d="M411 536q-3 -72 -47 -121.5t-145 -92.5q-44 -19 -65.5 -43.5t-41.5 -78.5l-6 -28q-1 -4 -7.5 -2t-5.5 6q22 104 79 142q79 52 121.5 111.5t39.5 118.5t-38 89.5t-75 30.5q-26 0 -54 -12.5t-34 -34.5q-1 -3 0 -5t7.5 -5t20.5 -4q40 -3 35 -49q-2 -16 -16 -28.5t-34 -13.5 q-24 -1 -40 13.5t-18 38.5q-3 50 44.5 84t100.5 34q96 0 139 -44.5t40 -105.5zM129 60q0 -29 -16 -50.5t-43 -21.5q-21 0 -34 15t-13 38q0 28 15.5 50.5t41.5 22.5q21 0 35 -16t14 -38z" />
<glyph unicode="@" horiz-adv-x="736" d="M727 406q-11 -109 -55 -181t-122 -72q-40 0 -65.5 19.5t-25.5 60.5h-2q-8 -20 -42 -50t-69 -30q-13 0 -25.5 3.5t-30 15.5t-28 41t-10.5 72q0 102 56 178.5t133 76.5q26 0 45.5 -17.5t27.5 -42.5h2l10 47h68l-66 -276q-2 -9 -2 -29q0 -39 39 -39q40 0 70 35.5t44 83 t20 103.5q7 65 -21.5 128t-95 107t-154.5 44q-125 0 -203 -91t-97 -268q-9 -77 20 -150.5t94.5 -122.5t151.5 -49q105 0 207 56q11 7 12 0q1 -5 -6 -12q-103 -63 -212 -63q-74 0 -135.5 23t-101 59.5t-65.5 83.5t-36 94t-7 92q13 170 120.5 277t258.5 107q133 0 222 -93 t76 -221zM501 440q0 26 -11.5 42t-34.5 16q-41 0 -88.5 -61.5t-47.5 -151.5t59 -90q44 0 83.5 74.5t39.5 170.5z" />
<glyph unicode="A" d="M492 18q9 1 6 -10q-2 -8 -8 -8q-151 2 -226 0q-7 0 -6 9q1 8 9 8l76 1l5 4l-7 226q0 4 -6 4h-190q-5 0 -7 -4l-111 -194q-12 -21 -12 -24q0 -12 43 -13l27 -1q7 0 5 -9q-1 -7 -8 -7q-76 1 -153 0q-7 0 -7.5 9.5t9.5 8.5l23 -1q29 -2 48 32l400 687l2 2q6 1 10 0 q3 -2 3 -3l20 -714q0 -4 6 -4q9 0 24 0.5t25 0.5zM340 273l-4 311q0 5 -2 1l-180 -310q-1 -1 -1.5 -3.5t2.5 -3.5h180z" />
<glyph unicode="B" horiz-adv-x="603" d="M596 559q0 -72 -60.5 -125t-151.5 -71v-2q69 -3 113 -40.5t44 -110.5q0 -93 -84.5 -152t-192.5 -58q-154 1 -305 0q-4 0 -6.5 4.5t-0.5 9t8 4.5l71 -3l5 4l170 660q0 3 -1.5 5.5t-2.5 3.5l-1 1q-16 1 -42.5 -1t-32.5 -2q-9 0 -7 10q2 8 10 8q210 -2 315 0 q63 1 107.5 -35.5t44.5 -109.5zM503 589q0 54 -23.5 75.5t-74.5 23.5q-53 1 -103 0q-4 0 -4 -3l-78 -311q0 -4 5 -4l115 4q77 3 120 68t43 147zM448 246q0 29 -8.5 48.5t-22 30t-33 16.5t-39 7.5t-43.5 2.5h-8l-74 3q-6 0 -6 -4l-85 -329q0 -5 4 -5l122 3q90 3 131 50 q27 31 44.5 84t17.5 93z" />
<glyph unicode="C" horiz-adv-x="610" d="M653 688l-50 -244q-1 -3 -5 -3.5t-7 2t-2 5.5q11 37 11 93q0 69 -49 118.5t-115 49.5q-53 0 -100 -39t-78 -98.5t-54 -130.5t-33.5 -133.5t-10.5 -107.5q0 -27 4 -52.5t15 -52t28 -46t45 -32t64 -12.5q141 0 231 163l3 6q2 13 13 6q11 -6 3 -14q-99 -177 -255 -177 q-102 0 -173 79.5t-71 204.5q0 99 35 185.5t90 143.5t121 90t129 33q32 0 60.5 -11t45 -24.5t32 -24.5t25.5 -11q12 0 18 5t11 18t5 14q-1 9 8.5 6.5t5.5 -9.5z" />
<glyph unicode="D" horiz-adv-x="645" d="M636 435q0 -105 -43.5 -204.5t-125.5 -165.5t-181 -65q-165 2 -330 0q-6 0 -6.5 9.5t10.5 8.5l67 -1l6 4l170 663l-3 5h-34t-45 -2q-10 -1 -9 7q2 10 14 11q127 -4 274 -1q59 1 106 -22.5t74.5 -64t41.5 -87t14 -95.5zM547 514q0 95 -40.5 134t-115.5 40l-90 1 q-5 0 -5 -4l-172 -663l4 -6h152q54 0 101 43t76.5 105t50.5 134t30 128t9 88z" />
<glyph unicode="E" horiz-adv-x="524" d="M587 697q-17 -96 -28 -179q0 -9 -10 -8q-7 1 -6 7q6 33 6 58q0 47 -20 73.5t-45 33t-61 6.5h-119q-4 0 -6 -5l-74 -290q0 -4 4 -4h78q27 0 39 1t27 6.5t22 17.5t14.5 32.5t14.5 53.5q1 4 6 5t9 -1t4 -5q-40 -149 -61 -264q-2 -9 -13 -6q-7 1 -6 6q16 68 16 89 q0 49 -48 49h-102l-3 1q-3 1 -6 0.5t-4 -4.5l-91 -348q4 -6 7 -6h108q102 0 164 44t81 156q2 7 7 8.5t8 -2t2 -8.5q-15 -74 -43 -208q-2 -6 -7 -6q-246 2 -492 0q-8 0 -4 9q2 7 8 7l68 1q4 0 4 4l170 659l-2 6l-79 2q-9 0 -6 9q2 7 9 7q226 -1 453 0q8 0 7 -7z" />
<glyph unicode="F" horiz-adv-x="486" d="M564 688q-16 -116 -26 -178q0 -8 -11 -5q-5 1 -4 5q5 40 5 53q0 67 -35.5 96t-115.5 29h-78q-3 0 -4 -4l-75 -290q-2 -5 4 -5h14l79 1q50 1 72.5 22t35.5 83q1 5 9 4.5t8 -6.5q-31 -113 -63 -258q-1 -3 -5 -4.5t-7 0t-3 4.5q15 64 15 87q0 48 -50 48h-109q-5 0 -7 -5 l-92 -344q-2 -4 3 -4l82 -1q8 0 6 -9q-2 -7 -9 -7q-123 3 -244 0q-8 0 -4 9q2 7 8 7l69 1l4 4l170 661q1 5 -3 5l-79 1q-4 -1 -5 5q-1 9 8 11h432q8 0 5 -16z" />
<glyph unicode="G" horiz-adv-x="630" d="M669 657q-40 -110 -70 -246q-2 -5 -8.5 -2.5t-5.5 6.5q8 59 8 83q0 96 -47.5 153.5t-120.5 57.5q-54 0 -102.5 -44.5t-81 -110t-56.5 -140.5t-35.5 -136.5t-11.5 -97.5q0 -78 37 -126.5t117 -48.5q57 0 88 27t38 53l42 153q1 4 -3 4l-64 -2q-3 0 -4 4t1 8t6 5 q104 6 234 -1q7 0 4 -9q-2 -6 -8 -7l-62 2q-4 0 -5 -4l-35 -124q-11 -40 -93.5 -82.5t-138.5 -42.5q-98 0 -167 79.5t-69 204.5q0 99 35 185.5t90 143.5t121 90t129 33q39 0 73 -15.5t52.5 -34t36.5 -34t29 -15.5q9 0 15 3.5t8 6.5t6 13t6 14q2 6 9.5 3t2.5 -9z" />
<glyph unicode="H" horiz-adv-x="702" d="M780 705q7 0 4 -9q-1 -7 -7 -7l-65 1q-6 0 -7 -6l-171 -663q-2 -6 5 -6l76 1q7 0 5 -9q-2 -7 -8 -7q-169 2 -253 0q-7 0 -4 9q2 7 8 7l73 -1q5 0 6 5l83 327q2 7 -5 7l-299 -2q-11 0 -13 -5l-83 -325q-1 -7 2 -7l76 1q2 0 3 -4t-1 -8t-6 -4q-123 -1 -244 0q-6 0 -3 10 q2 7 7 6l65 1q8 0 9 7l169 659q0 5 -4 5l-78 1q-7 0 -3 9q2 7 8 7q110 -5 251 0q6 0 3 -9q-2 -7 -7 -7l-72 1q-5 0 -6 -7l-78 -307q-1 -2 1.5 -4t5.5 -2l301 1q8 0 9 6l79 308q0 5 -3 5l-75 -3q-6 -1 -6 5q1 11 9 13q122 -3 243 0z" />
<glyph unicode="I" horiz-adv-x="307" d="M384 704q7 1 8 -7q1 -11 -10 -11h-2l-69 2q-7 0 -9 -7l-168 -653q-1 -2 0.5 -7t4.5 -5h72q9 1 9 -7q0 -9 -9 -9h-4h-243q-7 0 -7 9t7 9l67 -2q5 0 8 8l170 657q2 7 -7 7l-74 -2q-8 0 -4 10q2 8 8 8q83 -2 252 0z" />
<glyph unicode="J" horiz-adv-x="375" d="M451 704q3 0 4.5 -5.5t-1 -11t-7.5 -5.5l-70 2q-7 0 -9 -8l-144 -561q-18 -70 -78 -130.5t-122 -60.5q-37 0 -60.5 27t-23.5 68q0 33 17 54.5t43 21.5q57 0 57 -60q0 -22 -16 -38t-38 -16q-4 0 -11.5 3t-10.5 3q-7 0 -7 -13t14.5 -23.5t31.5 -10.5q23 0 40.5 10t27.5 29 t14.5 31.5t10.5 33.5l161 624q4 16 -6 16l-70 -2q-4 0 -6.5 5.5t-0.5 11t7 5.5q110 -6 253 0z" />
<glyph unicode="K" horiz-adv-x="610" d="M688 705q4 0 6 -4.5t0 -8.5t-8 -4q-52 0 -79 -13.5t-70 -50.5l-257 -226q-2 -2 0 -5l218 -372q3 -5 12 -5h46q8 0 5 -9q-2 -7 -9 -7h-234q-8 0 -5 9q2 7 8 7h66q6 1 6 4l-183 316q-2 3 -4 -3l-79 -306q-3 -9 5 -9l72 -2q9 0 6 -9q-2 -7 -9 -7q-163 2 -244 0q-8 0 -5 9 q2 7 9 7l64 2q7 0 9 6l168 653q1 5 -2.5 8t-8.5 3h-69q-10 0 -6 9q2 7 10 7q199 -2 252 0q7 0 7 -8t-11 -8h-69q-7 0 -9 -8l-83 -318q-1 -2 -0.5 -4t3.5 0l324 292q16 13 16 24q0 16 -42 15l-27 -1q-4 0 -6 4.5t0.5 8.5t8.5 4q103 -4 198 0z" />
<glyph unicode="L" horiz-adv-x="545" d="M534 259q-52 -148 -74 -255q0 -4 -6 -4q-248 2 -495 0q-7 0 -5 9q2 7 8 7h62q8 0 11 8l169 658q0 6 -6 6l-72 -1q-3 0 -4.5 4.5t-0.5 8.5t6 4q169 -2 252 0q6 0 5.5 -8t-9.5 -8h-70q-6 0 -8 -7l-170 -653q-4 -12 7 -12h107q112 0 176 58t102 189q0 9 9 8q11 -1 6 -12z " />
<glyph unicode="M" horiz-adv-x="758" d="M835 707q9 0 7 -10q-1 -9 -10 -9h-70q-6 0 -6 -5l-170 -658q-1 -7 4 -7l72 -2q8 0 5 -9q-2 -7 -8 -7q-82 -2 -251 0q-7 0 -5 9q2 7 9 7l74 2q7 0 9 6v2l162 622l-2 2l-403 -648q-2 -4 -6.5 -2.5t-4.5 4.5l-26 658q0 1 -1 1t-1 -1l-153 -592q-3 -11 -3 -23q0 -31 68 -31 q7 0 4 -9q-1 -7 -8 -7q-14 2 -81.5 0.5t-79.5 -1.5q-1 0 -8 -1q-3 -1 -4 4q-1 12 9 14q47 0 56 9q16 11 26.5 40.5t41.5 151.5l120 464q1 4 -0.5 5.5t-7.5 1.5l-74 -3q-4 0 -6 4.5t0.5 9.5t8.5 5q86 -3 171 0q7 0 7 -5l22 -551h2l342 552q3 4 8 4q40 -1 161 3z" />
<glyph unicode="N" horiz-adv-x="670" d="M738 704q7 0 6 -8t-10 -8h-8q-37 0 -50 -10t-22 -42l-165 -628q-3 -11 -21.5 -14.5t-23.5 8.5l-224 668q-1 1 -3 0l-146 -571q-12 -50 -12 -51q0 -36 47 -32l23 2q6 1 6 -7q1 -11 -9 -11q-84 3 -170 0q-7 0 -4 11q2 8 8 7l25 -2q34 -3 47.5 24.5t44.5 146.5l127 491 q3 8 -4 8l-77 2q-7 0 -5 9q1 7 8 7q118 -2 175 0q4 0 4 -3l192 -583l3 1l120 453q19 72 19 90q0 15 -13.5 20t-59.5 6q-2 0 -3 4t0.5 8t6.5 4q89 3 168 0z" />
<glyph unicode="O" horiz-adv-x="652" d="M635 436q0 -68 -27 -146t-72 -144.5t-111.5 -111t-136.5 -44.5q-96 0 -164 74t-68 216q0 51 16 110.5t48.5 118.5t75 107.5t102 79t123.5 30.5q80 0 147 -75.5t67 -214.5zM552 545q0 51 -12.5 86t-34.5 51t-42 22t-43 6q-75 0 -122 -51t-83 -144q-29 -75 -50 -179 t-21 -162q0 -168 141 -168q119 0 185 168q35 89 58.5 200.5t23.5 170.5z" />
<glyph unicode="P" horiz-adv-x="548" d="M578 546q0 -115 -73 -179t-179 -64q-38 0 -72 19t-37 45l-90 -346q-2 -5 5 -5h83q8 0 5 -9q-1 -7 -8 -7h-254q-8 0 -5 9q2 7 9 7h64q6 0 9 6l169 660q0 6 -4 6h-77q-8 0 -5 9q2 7 9 7q137 -4 272 0q78 2 128.5 -37t50.5 -121zM478 577q0 59 -23 85t-78 26h-73q-5 0 -6 -4 l-74 -287q5 -33 31.5 -53.5t55.5 -20.5q47 0 81.5 26t52 67t25.5 81.5t8 79.5z" />
<glyph unicode="Q" horiz-adv-x="663" d="M645 436q0 -69 -22.5 -143.5t-62.5 -140.5t-103 -111t-136 -50q-1 0 -3 -2l-1 -2l-20 -81q-7 -26 -7 -35q0 -69 120 -69h29q6 -1 5.5 -6.5t-5.5 -6.5q-57 -3 -58 -3q-28 0 -54.5 4.5t-53.5 15.5t-43.5 34t-16.5 56q0 14 20 102l-1 1q-71 22 -118.5 92t-47.5 189 q0 51 16 110.5t48.5 118.5t75 107.5t102 79t123.5 30.5q80 0 147 -75.5t67 -214.5zM562 545q0 51 -12.5 86t-34.5 51t-42 22t-43 6q-75 0 -122 -51t-83 -144q-29 -75 -50 -179t-21 -162q0 -168 141 -168q119 0 185 168q35 89 58.5 200.5t23.5 170.5z" />
<glyph unicode="R" horiz-adv-x="582" d="M580 567q0 -92 -62 -145.5t-147 -61.5v-2q46 -7 85 -40t39 -77q0 -32 -17 -105.5t-16 -91.5q-3 -43 21 -34q12 5 14 16t-2 22t1 22t23 15q15 3 24 -9.5t9 -22.5q0 -28 -20 -43.5t-56 -15.5q-48 0 -71 31.5t-23 65.5q0 14 18 101t18 102q0 30 -27 45t-61 15h-108 q-8 0 -11 -8l-83 -323q-2 -7 5 -7l73 2q3 0 5 -4.5t0 -9t-8 -4.5h-232q-3 0 -6.5 -1t-5.5 -1q-3 0 -5.5 4.5t0 9t8.5 4.5h62q9 0 11 6l169 660q1 5 -4 5h-77q-3 1 -4.5 5t0.5 8t8 4q156 -3 308 0q76 1 110.5 -43t34.5 -94zM491 608q0 80 -79 80h-108q-4 0 -6 -5l-79 -306 q-2 -7 7 -7h120q44 0 78.5 40.5t50.5 93.5t16 104z" />
<glyph unicode="S" horiz-adv-x="486" d="M512 698q-11 -32 -19.5 -64.5t-19 -80.5t-14.5 -65q-2 -6 -9 -4.5t-6 8.5q9 56 9 76q0 67 -37.5 104t-105.5 37q-63 0 -107 -41.5t-44 -106.5q0 -43 29.5 -71t71.5 -45t83.5 -38t71 -63t29.5 -105q0 -38 -12.5 -78.5t-38.5 -80.5t-75 -65.5t-113 -25.5q-40 0 -74.5 15 t-58.5 30t-39 15q-6 0 -11 -2.5t-9 -8t-6.5 -9.5t-7 -12.5t-5.5 -11.5q-3 -5 -8.5 -3.5t-4.5 6.5q20 58 58 248q2 6 11 6.5t9 -6.5q-12 -50 -12 -89q0 -70 48 -116t119 -46q45 0 79 15.5t51.5 36.5t28.5 47.5t13.5 44t2.5 30.5q0 52 -27.5 84t-67 48.5t-79 34.5t-67 55 t-27.5 96q0 30 8 63.5t27.5 73.5t61.5 65.5t101 25.5q38 0 68.5 -14t51 -28t33.5 -14q16 0 25 35q1 4 5 4.5t7 -2.5t3 -8z" />
<glyph unicode="T" horiz-adv-x="615" d="M683 697q-34 -117 -59 -226q-1 -2 -4.5 -3.5t-6.5 -0.5t-3 4q14 75 14 98q0 65 -29 92t-89 27h-51q-5 0 -7 -5l-172 -661q-2 -6 2 -6l77 1q8 0 2 -12q-3 -5 -6 -5q-139 3 -241 1q-3 0 -4 3q-2 10 6 12h65q4 0 6 5l172 660q2 6 -6 6l-50 1q-47 1 -87 -25t-65 -65.5 t-39 -71t-19 -55.5q0 -8 -10 -7q-6 1 -4 7q29 93 63 229q1 4 4 4q216 -4 537 0q6 0 4 -7z" />
<glyph unicode="U" horiz-adv-x="667" d="M739 705q3 0 4 -4t-1 -8t-6 -5q-36 2 -53.5 -6t-25.5 -39l-126 -466q-25 -96 -83.5 -140t-171.5 -44q-54 0 -101.5 16t-80.5 53t-33 88q0 19 55 248l71 277v5t-3 6t-8 3h-70q-2 0 -2.5 4t1.5 8t5 4h253q6 0 3 -9q-2 -7 -7 -7h-71q-6 0 -7 -6l-77 -293q-59 -226 -59 -265 q0 -57 39.5 -89t95.5 -32q95 0 152.5 43.5t83.5 137.5l105 384q20 77 20 93q0 15 -12 21t-52 6h-20q-5 0 -4.5 8.5t9.5 7.5q20 0 56.5 -0.5t65.5 -0.5t55 1z" />
<glyph unicode="V" horiz-adv-x="523" d="M632 705q7 0 4 -10q-1 -8 -8 -8q-22 0 -29.5 -3.5t-18.5 -20.5l-460 -672q-3 -4 -8.5 -2.5t-4.5 6.5l103 687q0 5 -5 5h-64q-3 0 -4 4t1 8t6 4q87 -2 256 2q4 0 5.5 -4.5t-0.5 -9.5t-9 -6l-90 2q-7 0 -7 -6l-77 -514q1 -3 2 -4l322 474q15 22 15 33q0 17 -59 17 q-3 0 -4 4t0.5 8t4.5 4q45 -2 129 2z" />
<glyph unicode="W" horiz-adv-x="795" d="M905 705q8 0 2 -10q-2 -5 -6 -6q-21 0 -29.5 -6.5t-28.5 -35.5l-439 -659q-3 -3 -7.5 -1.5t-4.5 5.5l65 459q0 2 -1 2t-2 -1l-326 -463q-3 -3 -9.5 -1.5t-6.5 5.5l105 691q0 5 -7 5h-57q-2 0 -3 4t1 8t5 4q115 1 228 0q7 0 4 -9q-3 -7 -8 -7h-66q-6 0 -7 -6l-83 -533v-2 t1 0l237 337l28 197q0 7 -6 7l-63 -2q-5 1 -4 9.5t6 8.5q124 -3 246 0q6 0 2 -9q-3 -7 -8 -7h-79q-6 0 -8 -6l-78 -530q0 -1 0.5 -2t1.5 0l312 479q24 38 24 42q0 11 -14 14t-48 3q-2 0 -3.5 4t0 8t6.5 4q43 -2 128 0z" />
<glyph unicode="X" horiz-adv-x="500" d="M555 704q3 0 3.5 -4t-1.5 -8t-5 -4h-8q-43 0 -63 -28l-174 -249q-1 -2 0 -6l89 -383q2 -5 5 -5l54 -1q3 0 3.5 -4t-1.5 -8t-5 -4q-111 3 -221 0q-2 0 -2.5 4t1 8t4.5 4l67 1q3 0 4.5 2.5t0.5 4.5l-64 280q-2 7 -6 4l-144 -205q-37 -50 -37 -64q0 -23 38 -23h18 q3 0 3.5 -4t-1.5 -8t-5 -4q-86 3 -170 0q-3 0 -4 4t1 8t5 4q49 0 65 6.5t39 39.5l185 266q5 6 4 8t-1 3l-79 346q-1 3 -5 3l-65 -1q-3 0 -4.5 4.5t0 8.5t5.5 4q113 -3 226 0q3 0 3 -4t-2 -8.5t-4 -4.5l-61 1q-3 0 -3 -4l57 -253q1 -3 4 1l127 187q23 33 23 45q0 11 -7 16.5 t-15 6.5t-22 1h-23q-2 0 -3 4t0.5 8t6.5 4q68 -4 164 0z" />
<glyph unicode="Y" horiz-adv-x="479" d="M599 704q10 -2 3 -11q-4 -5 -7 -5h-8q-29 0 -45 -24l-250 -374l-69 -270q-2 -4 3 -4h76q6 0 1 -11q-2 -5 -5 -5q-176 2 -242 -1q-3 0 -4 4.5t0.5 8.5t4.5 4h67q5 0 5 5l73 270q2 6 1 9l-26 382q0 6 -6 6h-64q-6 0 -3 9q2 7 7 7q77 -2 232 0q6 0 1 -11q-2 -5 -5 -5h-69 q-7 0 -7 -5l22 -372h2l206 308q30 45 30 57t-58 12h-13q-6 0 -4 9q2 7 8 7q50 -2 143 0z" />
<glyph unicode="Z" horiz-adv-x="547" d="M592 698l-484 -674q-6 -8 3 -8h158q94 0 147 43.5t89 148.5q2 9 12 10q10 0 2 -12q-11 -34 -26.5 -99t-26.5 -100q-2 -7 -10 -7h-460q-12 0 -7 9l487 673q3 6 -3 6h-139q-51 0 -89 -14t-64 -41.5t-42.5 -56.5t-32.5 -72q0 -9 -11 -10q-9 -1 -9 7q0 4 4 9q27 78 57 191 l3 3q221 -1 440 0q6 0 2 -6z" />
<glyph unicode="[" horiz-adv-x="340" d="M389 685q-7 0 -43 1.5t-51 -0.5q-9 0 -14 -15q-40 -122 -75 -238.5t-55 -190t-56 -208t-59 -220.5q-3 -12 6 -17.5t21 -5.5q60 -2 79 0q32 3 35 -17q3 -16 -16 -24q-8 -3 -18 -2q-13 1 -44 0t-44 -1q-49 0 -67 22.5t-7 60.5q42 140 111 390t127 436q22 72 76 72h93 q33 0 39 -19q5 -17 -17 -23q-9 -2 -21 -1z" />
<glyph unicode="\" horiz-adv-x="248" d="M258 18q14 -28 -8 -40q-20 -11 -35 6q-7 9 -9 22q-8 55 -80.5 344t-91.5 337q-11 29 12 41q21 11 36 -6q8 -9 8 -25q2 -49 73 -339t95 -340z" />
<glyph unicode="]" horiz-adv-x="310" d="M305 654q-112 -379 -247 -815q-11 -36 -28.5 -54.5t-47.5 -18.5h-93q-32 0 -39 19q-5 17 16 24q10 2 22 1q7 0 43 -1t51 0q10 0 14 15q136 414 254 843q3 12 -6 17.5t-21 5.5q-60 2 -79 0q-32 -3 -35 17q-3 16 16 24q8 3 18 2h88q97 0 74 -79z" />
<glyph unicode="^" horiz-adv-x="473" d="M434 398q26 -39 8 -64q-15 -20 -37 -3q-15 12 -26 38l-116 277q-91 -235 -110 -289q-12 -35 -40 -32q-23 2 -27 26q-4 19 11 42q76 119 155 270q11 20 21 -1q47 -96 161 -264z" />
<glyph unicode="_" horiz-adv-x="423" d="M425 -81l-1 -45h-425v45h426z" />
<glyph unicode="`" horiz-adv-x="253" d="M276 525q8 -5 4 -6q-2 0 -11 5q-71 44 -158 86q-20 16 -22 28q-2 11 4.5 23t16.5 13q21 2 35 -12q77 -85 131 -137z" />
<glyph unicode="a" horiz-adv-x="507" d="M483 93q-1 -1 -8.5 -17t-15 -27.5t-20 -26t-29.5 -22.5t-37 -8q-18 0 -30.5 7t-19 14.5t-10 22.5t-4 22t-0.5 22h-1q-20 -35 -55.5 -62.5t-72.5 -27.5q-63 0 -100 49t-37 121q0 103 80 188.5t168 85.5q40 0 64.5 -27.5t30.5 -56.5h1l21 62q3 10 12 10q28 -3 52 0 q10 0 7 -10l-99 -318q-10 -32 -10 -52q0 -13 3.5 -19t14.5 -6q15 0 29.5 12t22.5 23t18.5 30.5t11.5 20.5t4.5 0.5t6.5 -4t2 -6.5zM372 329q0 31 -23 60t-62 29q-41 0 -76 -40.5t-54.5 -97.5t-30.5 -109t-11 -85q0 -80 66 -80q101 0 150 174q8 30 20 67.5t16.5 55t4.5 26.5z " />
<glyph unicode="b" horiz-adv-x="503" d="M465 273q0 -26 -10 -61t-32 -74.5t-52 -72t-74 -54t-94 -21.5q-59 0 -100.5 35t-41.5 93q0 45 13 91l129 484q0 3 -2 3q-30 6 -60 0q-9 0 -10 6.5t8 8.5q3 1 6 1h41q61 0 97 22q3 2 3 -4l-103 -382l2 -2q25 40 68 64t84 24q57 0 92.5 -39t35.5 -122zM393 332 q0 41 -14.5 63.5t-52.5 22.5q-66 0 -120 -64q-38 -46 -59.5 -136t-21.5 -135q0 -26 22.5 -51.5t63.5 -25.5q40 0 73.5 30.5t52.5 72.5t32.5 91t18.5 82.5t5 49.5z" />
<glyph unicode="c" horiz-adv-x="404" d="M384 362q0 -24 -11.5 -37.5t-30.5 -13.5t-30 12t-11 35q0 16 5 29.5t5 14.5q0 16 -32 16q-45 0 -80 -39t-52.5 -95.5t-25.5 -105t-8 -82.5q0 -87 70 -90q63 -3 111 53.5t46 91.5q-2 13 8 14q9 -3 11 -14q0 -16 -11 -41.5t-31.5 -53.5t-57 -47.5t-79.5 -18.5q-21 0 -44 9 t-47 27.5t-39 53t-15 80.5q0 101 77.5 187.5t170.5 86.5q45 0 73 -21t28 -51z" />
<glyph unicode="d" horiz-adv-x="511" d="M547 728l-180 -648q-8 -27 -7 -41q0 -25 23 -25q15 0 40.5 24.5t33.5 59.5q-1 9 7 8q9 -1 7 -10q-1 -3 -2 -5q-5 -30 -37 -65.5t-80 -35.5q-28 0 -40.5 27t-12.5 63l-1 2q-14 -19 -21 -27.5t-25.5 -27.5t-41 -28t-48.5 -9q-55 0 -92 46.5t-37 124.5q0 71 39.5 136t94 101 t102.5 36q78 0 104 -81h2l86 338q1 5 -4 5q-38 0 -57 -2q-6 -1 -6 5q2 11 10 13h41q64 0 96 22q2 2 4.5 -1t1.5 -5zM364 332q0 23 -23 54.5t-55 31.5q-43 0 -79.5 -36.5t-58 -89.5t-33 -107.5t-10.5 -96.5q2 -82 63 -82q33 0 64.5 21.5t53.5 55.5q10 15 44 121.5t34 127.5z " />
<glyph unicode="e" horiz-adv-x="407" d="M383 347q0 -57 -55.5 -95.5t-135.5 -38.5q-17 0 -61 12q-3 2 -5.5 1t-3.5 -2.5t-1 -2.5q-14 -74 -14 -98q0 -117 86 -117q53 0 94.5 44.5t39.5 67.5q3 12 8 11q7 -1 5 -12q0 -4 -2 -7q-2 -31 -47 -75.5t-111 -44.5q-21 0 -44 9t-46.5 27.5t-39 53t-15.5 80.5 q0 111 78.5 192.5t169.5 81.5q40 0 70 -21.5t30 -65.5zM322 357q0 27 -15 44t-40 17q-29 0 -52.5 -15.5t-40 -44t-26.5 -53t-20 -57.5q-2 -5 4 -7q36 -12 60 -12q66 0 98 43t32 85z" />
<glyph unicode="f" horiz-adv-x="292" d="M423 680q0 -20 -13 -33t-31 -13q-20 0 -32.5 13t-12.5 30q0 16 7.5 27.5t7.5 13.5q0 8 -13 8q-25 0 -52 -43t-42 -84t-23 -75l-25 -104q-1 -2 2 -6t8 -4h72q9 4 11.5 -6t-6.5 -11q-3 0 -7 1h-78q-8 0 -10 -6q-95 -393 -135 -481q-45 -99 -78.5 -132t-79.5 -33 q-23 0 -39 18t-16 40t12.5 36t28.5 14q19 0 30 -11.5t11 -29.5q0 -17 -8.5 -27t-8.5 -14q0 -10 14 -10q17 0 38 21.5t38 76.5q13 42 49.5 237t68.5 296q1 3 0 4t-6 1q-49 -2 -73 0q-7 0 -5 9q1 7 8 7l37 1q36 1 38 -1q7 0 7 4q40 165 120 255q66 73 124 73q26 0 44 -17.5 t18 -44.5z" />
<glyph unicode="g" horiz-adv-x="440" d="M477 384q0 -16 -8.5 -29t-26.5 -13q-37 0 -37 40q0 5 1.5 10t1.5 6q0 5 -7 5q-17 0 -38 -61q6 -20 6 -59q1 -63 -52.5 -112.5t-127.5 -49.5q-40 0 -65 15q-32 -7 -55 -23t-23 -38q0 -18 14 -26.5t55 -8.5q22 0 69 2t71 2q27 0 45 -3t38 -13t30.5 -32t10.5 -57 q0 -33 -15.5 -70t-44.5 -71t-77.5 -56t-106.5 -22q-70 0 -120.5 31.5t-50.5 84.5q0 86 97 134v3q-49 18 -49 69q0 41 29.5 66.5t70.5 34.5q-54 44 -54 112q0 74 58 125.5t126 51.5q33 0 65 -19.5t47 -51.5q6 14 13.5 27t26.5 28.5t40 15.5q43 0 43 -48zM308 344 q0 34 -17.5 53t-47.5 19t-54.5 -25t-37.5 -61t-19.5 -68.5t-6.5 -54.5q0 -33 18.5 -51.5t49.5 -18.5q30 0 54 28.5t36.5 67.5t18.5 69t6 42zM351 -87q0 31 -16.5 43t-37.5 12q-11 0 -56.5 -4t-72.5 -4t-82 7q-6 0 -18.5 -7t-28 -20.5t-26.5 -39t-11 -56.5q0 -39 35.5 -73.5 t111.5 -34.5q89 0 145.5 57.5t56.5 119.5z" />
<glyph unicode="h" horiz-adv-x="477" d="M463 97q-13 -37 -44.5 -70t-76.5 -33q-60 0 -60 74q0 34 44 165t44 150q0 33 -36 33q-24 0 -61 -23t-76 -73.5t-56 -113.5l-53 -200q-2 -6 -7 -6q-50 5 -63 0q-5 0 -4 6l184 684q2 4 -2 4q-27 3 -54 0q-8 -5 -8 6q0 12 8 11q2 0 4 -1h35q64 2 100 23h2v-1l-118 -438h2 q32 59 81.5 98.5t100.5 39.5q42 0 64.5 -22.5t22.5 -58.5q0 -24 -44 -158t-44 -144q0 -31 22 -31q25 0 50.5 32t32.5 54q5 10 11 1q2 -5 -1 -8z" />
<glyph unicode="i" horiz-adv-x="239" d="M265 662q0 -26 -17.5 -50t-41.5 -24q-29 0 -29 34q0 26 16.5 50t36.5 24q35 0 35 -34zM215 84q3 -19 -34 -57t-89 -37q-26 0 -44.5 16.5t-18.5 50.5q0 22 11 60l77 267q2 6 -4 6q-28 3 -51 0q-6 -1 -7 6q2 10 10 10h22q68 0 115 21h3l-96 -325q-14 -49 -14 -62 q0 -10 5.5 -17.5t16.5 -8.5q24 -1 46 16.5t32.5 36.5t7.5 25q1 12 9 9q10 -3 6 -12q0 -3 -3 -5z" />
<glyph unicode="j" horiz-adv-x="257" d="M285 666q0 -26 -17.5 -50t-41.5 -24q-15 0 -22.5 11t-7.5 23q0 26 16.5 50t37.5 24q19 0 27 -10.5t8 -23.5zM224 424l-107 -365q-32 -109 -67 -176.5t-81 -119.5q-37 -43 -88 -43q-20 0 -36.5 15.5t-16.5 39.5q0 21 11.5 37.5t28.5 16.5t27.5 -12t10.5 -33 q0 -12 -5.5 -22t-5.5 -13q0 -13 14 -13q15 0 28.5 13.5t25 44t16 45t14.5 50.5q32 119 142 501q-3 4 -5 4q-25 3 -50 0q-11 -4 -11 5q-1 10 9 11h4h25q53 0 109 20q4 1 6.5 -1.5t1.5 -4.5z" />
<glyph unicode="k" horiz-adv-x="434" d="M429 390q0 -21 -12 -32.5t-28 -11.5q-18 0 -26.5 13.5t-12 27t-9.5 13.5q-9 0 -18.5 -13t-19.5 -31.5t-22 -37.5t-32.5 -33t-45.5 -16v-2q28 -1 49 -12t33 -28.5t19 -45t9.5 -55t2.5 -64.5q0 -38 21 -38q27 0 46.5 36.5t25.5 68.5q-2 8 8 8q7 1 8 -6q0 -3 -1 -6 q-40 -131 -124 -131q-65 0 -65 104q0 96 -11.5 130t-58.5 34h-4q-6 0 -8 -8l-67 -245q-3 -9 -9 -9q-29 7 -57 0q-8 0 -7 8l186 681q1 5 -4 5q-29 5 -59 -1q-8 -1 -8 7q0 11 10 11q1 0 3 -1h41q47 0 95 21q7 2 7 -3l-124 -442q-2 -8 7 -8q59 0 90 37q13 16 31.5 51.5t38 52.5 t53.5 17q25 0 37 -13t12 -33z" />
<glyph unicode="l" horiz-adv-x="254" d="M282 729l-176 -637q-11 -44 -11 -48q0 -10 5.5 -17.5t16.5 -8.5q37 -1 63 32t25 50q8 12 13 3q3 -6 -1 -11q-1 -23 -36 -61.5t-89 -36.5q-26 1 -44.5 17t-18.5 50q0 19 16 77l152 552q1 4 -2 4q-41 4 -61 0q-9 -5 -12 5q-2 11 9 12q3 0 7 -1h42q62 0 98 22q1 1 3 0t1 -3z " />
<glyph unicode="m" horiz-adv-x="712" d="M692 92q-7 -13 -15.5 -26t-24.5 -31t-38 -29.5t-45 -11.5q-59 0 -59 74q0 33 43.5 164.5t43.5 150.5q0 33 -36 33q-33 0 -92.5 -70.5t-72.5 -121.5l-52 -210q-3 -11 -11 -14q-30 -9 -57 0q-6 2 -7 3.5t0 6.5l66 251q27 101 27 134q0 21 -20 21q-49 0 -106 -69.5 t-74 -127.5l-60 -207q-2 -10 -11 -12q-24 -5 -59 0q-7 2 -5 11l70 235q28 95 28 145q0 19 -22 19q-38 0 -67 -78q-3 -9 -8.5 -6.5t-1.5 11.5q35 95 94 93q34 -1 50 -21.5t17 -49.5q0 -11 -1.5 -26t-2.5 -26.5t-1 -13.5q34 60 80 99.5t92 39.5q31 0 50.5 -19t19.5 -50 q0 -40 -8 -63h2q87 132 159 132q42 0 64 -22.5t22 -58.5q0 -24 -43.5 -158t-43.5 -144q0 -31 21 -31q18 0 38.5 19t30 34t16.5 28q4 13 12.5 7t-2.5 -14z" />
<glyph unicode="n" horiz-adv-x="516" d="M488 96q-60 -102 -126 -102q-60 0 -60 74q0 34 44 165t44 150q0 33 -36 33q-41 0 -105 -59t-88 -151l-51 -197q-2 -6 -12 -9q-26 -5 -60 0q-6 1 -6 7l98 362q4 15 -5 28.5t-22 13.5q-39 0 -68 -78q-4 -11 -9 -6q-3 3 0 11q35 95 94 93q34 -1 51 -22t18 -50q1 -33 -5 -65 h1q33 59 83 98.5t101 39.5q42 0 64.5 -22.5t22.5 -58.5q0 -24 -44 -158t-44 -144q0 -31 22 -31q11 0 22.5 6.5t22.5 19t18 21.5t16 23t10 15q3 7 8 5q9 -3 1 -12z" />
<glyph unicode="o" horiz-adv-x="438" d="M404 273q0 -117 -72 -200t-159 -83q-73 0 -111 49t-38 126q0 63 30.5 124.5t87 103t122.5 41.5q52 0 96 -45t44 -116zM338 338q0 37 -20.5 58.5t-59.5 21.5q-61 0 -99 -69q-15 -29 -42 -126t-27 -130q0 -38 21.5 -62.5t59.5 -24.5q55 0 94 60q19 36 46 133.5t27 138.5z " />
<glyph unicode="p" horiz-adv-x="476" d="M443 264q0 -101 -74 -187.5t-166 -86.5q-44 0 -72 20t-35 56q-1 1 -4 0l-80 -314q-2 -4 2 -4q18 -2 51 0q10 1 11 -7q1 -11 -14 -10q-74 6 -179 -1q-10 -2 -10 7q0 10 8 11q3 0 5 -1q25 -2 46 1q5 0 5 4l170 623q3 11 -6.5 24t-22.5 13q-38 0 -67 -78q-3 -9 -8.5 -6.5 t-1.5 11.5q35 95 94 93q33 -1 49 -22.5t17 -52.5l3 4q3 4 8.5 11t13 15.5t19.5 17t25.5 15.5t31.5 11t38 3q59 -2 101 -48.5t42 -121.5zM371 317q0 50 -20.5 75.5t-55.5 25.5q-56 0 -94 -45.5t-58 -117.5l-31 -114q-7 -26 -7 -45q0 -42 26.5 -66t62.5 -24q41 0 76.5 35.5 t56.5 86.5t32.5 101.5t11.5 87.5z" />
<glyph unicode="q" horiz-adv-x="497" d="M452 413l-183 -660q-2 -5 3 -5q23 -3 51 0q7 2 7 -6q1 -10 -9 -10h-2q-112 3 -186 0q-4 -1 -5 5q-3 12 7 11h2q18 -2 48 0q8 0 9 4l89 315l-2 2q-21 -28 -57 -53.5t-72 -25.5q-55 0 -92 46.5t-37 124.5q0 108 79 190.5t160 82.5q74 0 101 -79h2l15 59q1 3 10 1 q24 -2 54 1h4q4 -2 4 -3zM354 329q0 12 -5 30t-26.5 38.5t-55.5 20.5q-41 0 -76 -38t-55 -92t-31 -108t-10 -92q2 -82 63 -82q33 0 64.5 21.5t53.5 55.5q10 14 44 120.5t34 125.5z" />
<glyph unicode="r" horiz-adv-x="345" d="M383 379q0 -23 -14.5 -36.5t-33.5 -13.5q-35 0 -35 37q0 11 2.5 19.5t2.5 9.5q0 10 -12 10q-34 0 -75 -46t-58 -111l-60 -239q-1 -4 -2.5 -5.5t-4.5 -2.5t-4 -1q-5 0 -15 -1t-20.5 -1t-23.5 2q-7 4 -7 5l90 333q8 27 -0.5 43.5t-23.5 16.5q-38 0 -66 -78q-3 -10 -9 -6 q-5 3 -2 11q20 54 45.5 78.5t49.5 23.5q35 -1 51.5 -31.5t7.5 -69.5q-4 -23 0 -26q6 13 16.5 29.5t30.5 41.5t49.5 41.5t61.5 16.5q29 0 44 -14.5t15 -35.5z" />
<glyph unicode="s" horiz-adv-x="369" d="M343 374q7 -21 -1 -37t-25 -22q-18 -7 -31.5 1t-18.5 24q-9 25 11 57q-8 21 -41 21q-69 0 -69 -87q0 -23 13 -41.5t31 -33t36.5 -30.5t31.5 -43t13 -63q0 -47 -44.5 -88t-104.5 -42q-50 -1 -81.5 21t-41.5 53q-8 21 -1.5 42.5t26.5 28.5q17 7 32 -1.5t20 -23.5 q9 -26 -7.5 -46t-12.5 -31q4 -12 28.5 -21.5t48.5 -3.5q71 16 71 79q0 28 -18 53t-39 42t-39 46.5t-18 65.5q0 46 35.5 92t93.5 46q46 0 68.5 -13t33.5 -45z" />
<glyph unicode="t" horiz-adv-x="288" d="M312 409q7 2 8 -6q1 -10 -9 -10h-4q-31 2 -96 0q-5 0 -6 -3l-89 -307q-7 -26 -7 -45q0 -12 7.5 -20.5t21.5 -8.5q26 0 63 34.5t47 78.5q2 6 9 2t1 -10q-9 -42 -49.5 -81.5t-89.5 -39.5q-76 0 -76 71q0 21 15 73l72 251q2 4 -4 4q-40 2 -58 0q-10 -1 -8 9q2 11 13 8 q29 -1 59 0q4 0 6 5l38 132q44 0 76 23q2 4 5 0q1 -3 0 -5l-45 -151q-2 -4 3 -4q52 -1 97 0z" />
<glyph unicode="u" horiz-adv-x="500" d="M477 91q-39 -100 -113 -100q-30 0 -47.5 17.5t-17.5 47.5q0 19 17 70q0 8 -4 2q-47 -67 -90.5 -102t-94.5 -35q-39 0 -61 16t-22 60q0 10 7 40.5t7 31.5l78 226q4 12 -2.5 26t-18.5 14q-38 0 -67 -78q-3 -9 -8.5 -6.5t-1.5 11.5q35 95 94 93q35 -1 54.5 -25t11.5 -52 l-78 -266q-10 -36 -10 -41q0 -34 37 -34q42 0 105.5 65t86.5 145l57 192q3 7 16 10q6 1 52 1q12 0 9 -11l-100 -327q-7 -24 -7 -43q0 -8 7 -16t19 -8q39 0 73 83q3 10 10.5 4.5t1.5 -11.5z" />
<glyph unicode="v" horiz-adv-x="437" d="M408 353q0 -41 -22.5 -102.5t-57.5 -119.5t-85 -99.5t-98 -41.5q-33 0 -56 24.5t-30 65.5t-1.5 89t29.5 101.5t62 97.5q2 2 3 4t0.5 3.5t-1.5 1.5q-18 0 -35.5 -6t-29 -14t-20 -16t-13 -13.5t-5.5 -5.5q-4 0 -4 2q0 18 13.5 66.5t18.5 52.5q1 1 3.5 0.5t3.5 -1.5 q0 -1 1 -5.5t2 -7t4 -6.5t7 -6q81 -15 131 5q5 1 7 -1q-132 -173 -121 -324q2 -28 15 -57t35 -28q44 2 95 55.5t83.5 118.5t32.5 105q0 17 -10 26.5t-21.5 12.5t-21.5 14t-10 31q0 23 12.5 37t32.5 14q25 0 38 -22t13 -51z" />
<glyph unicode="w" horiz-adv-x="714" d="M680 356q0 -57 -38.5 -142t-104 -154t-128.5 -69q-86 0 -86 74q0 25 10 55q1 2 -0.5 3.5t-3.5 -0.5q-17 -28 -30 -46t-36 -42t-50.5 -35t-58.5 -9q-47 3 -63.5 63.5t1 148t64.5 161.5q1 2 1.5 4.5t0.5 4.5t-1 2q-14 0 -26.5 -3.5t-22 -8.5t-17.5 -11t-13.5 -12 t-9.5 -10.5t-6 -7.5t-3 -3q-4 0 -4 2q0 17 13.5 66t17.5 53q1 1 3.5 0.5t3.5 -1.5q0 -1 1 -5.5t2 -7t4 -6.5t8 -6q73 -15 125 3q9 3 9 2q2 -3 -10 -26.5t-29.5 -59.5t-34.5 -84t-25 -101t1 -111q9 -51 68 -18q56 31 102 99q19 27 28 52q13 34 24.5 72.5t24.5 86t21 72.5 q5 6 8 6q34 9 61 0q1 -1 4 -6l-91 -334q-5 -20 -5 -24q0 -36 33 -36q46 0 100 55.5t89 123.5t35 108q0 17 -9.5 26.5t-21.5 12.5t-21.5 14t-9.5 31q0 23 12 37t33 14q25 0 38 -22t13 -51z" />
<glyph unicode="x" horiz-adv-x="582" d="M549 393q8 -18 2.5 -37t-23.5 -26q-14 -5 -27 2t-17 18q-6 16 -2 31t2 21q-2 12 -22 11q-24 1 -59 -40q-38 -45 -67.5 -140.5t-29.5 -134.5q0 -28 11.5 -49t39.5 -22q52 -3 126 94q2 3 3 4q3 2 7 -2t3 -9q-95 -123 -184 -123q-19 0 -33 6t-22 18t-13 22.5t-6.5 28.5 t-2 26.5t-0.5 25.5h-4q-8 -17 -19 -34.5t-29 -40.5t-42 -37.5t-49 -14.5q-59 0 -81 52q-11 24 -4 46t27 29q15 5 29.5 -2t20.5 -21q9 -21 -2.5 -42.5t-9.5 -26.5q8 -20 26 -19q41 3 83 64.5t66.5 136t24.5 125.5q0 72 -51 72q-27 0 -54.5 -23.5t-68.5 -73.5q-2 -2 -7 1.5 t-3 6.5q81 113 155 113q51 0 76 -24t31 -77h1q54 95 115 104q65 9 83 -39z" />
<glyph unicode="y" horiz-adv-x="413" d="M443 412l-94 -318q-44 -147 -90 -233q-66 -124 -167 -138q-69 -10 -114 33q-35 34 -25 76q7 28 38 25q19 -2 29.5 -13.5t6.5 -29.5q-1 -12 -9.5 -21.5t-15 -14.5t-4.5 -9q6 -11 22.5 -20.5t40 -13t54.5 14t59 57.5q19 26 35.5 74.5t38 124t38.5 123.5q0 8 -4 2 q-47 -67 -90.5 -102t-94.5 -35q-39 0 -61 16t-22 60q0 10 7 40.5t7 31.5l77 218q4 12 -2.5 26t-18.5 14q-38 0 -67 -78q-3 -9 -8.5 -6.5t-1.5 11.5q35 95 94 93q35 -1 54.5 -25t11.5 -52l-77 -258q-10 -36 -10 -41q0 -34 37 -34q42 0 105.5 65t86.5 145l57 192q3 7 16 10 q31 5 52 -1q9 -3 9 -5q1 -2 0 -4z" />
<glyph unicode="z" horiz-adv-x="378" d="M402 424q0 -9 -18 -27l-305 -320q-1 -2 2 -2q20 6 70 6q57 0 112 -21t58 -21q10 0 19 6.5t9 15.5q0 10 -16.5 23t-16.5 34q0 36 28 36q33 0 33 -50q0 -40 -35.5 -76.5t-117.5 -36.5q-20 0 -84.5 18t-88.5 18q-30 0 -30 -12q0 -2 1 -5.5t1 -7.5q0 -11 -13 -11t-13 15 q0 4 25 34l270 316q-1 0 -6.5 -3t-18.5 -6t-32 -4q-34 -2 -66 10t-52 25t-26 13q-25 0 -28 -17q-2 -9 17 -18t19 -26q0 -39 -26 -41q-14 -2 -26.5 11.5t-12.5 30.5q0 15 4 29.5t15 31.5t36 25.5t61 4.5q10 -1 67.5 -18t78.5 -14q79 9 79 22q0 1 -0.5 4.5t-0.5 5.5 q0 17 13 17q6 0 10.5 -4.5t4.5 -10.5z" />
<glyph unicode="{" horiz-adv-x="287" d="M331 717q-22 -17 -41 5q-38 -20 -61 -142q-6 -34 -8 -80t-3.5 -78.5t-9 -66t-28.5 -58.5t-57 -40q29 -16 37 -42.5t-3 -62t-26 -70t-37 -82t-32 -80.5q-30 -97 -8 -142q8 6 17.5 8t18 -2.5t8.5 -17.5q0 -7 -2 -11t-8.5 -6.5t-9.5 -3t-12 -1.5q-6 -1 -16.5 3.5t-14.5 10.5 q-16 25 -16.5 60t5.5 62.5t22 82.5q7 23 20.5 65.5t21.5 69t15 58.5t8 53q2 30 -35 48q43 18 55 39q17 27 27 66t20 96.5t17 86.5q3 12 10 41.5t10 42.5t10.5 36t14 35t17 25.5t23.5 21.5q6 5 17.5 7.5t23.5 -1.5q12 -6 14.5 -18.5t-4.5 -17.5z" />
<glyph unicode="|" horiz-adv-x="173" d="M139 682q-10 -47 -10.5 -330.5t9.5 -339.5q5 -30 -18 -37q-21 -6 -32 13q-5 10 -3 25q9 58 7 337t-10 336q-4 30 21 36q23 6 34 -14q5 -11 2 -26z" />
<glyph unicode="}" horiz-adv-x="279" d="M267 739q13 -26 14.5 -59.5t-5 -65t-20.5 -80.5q-7 -22 -20.5 -65t-21 -68.5t-14.5 -57.5t-8 -53q-1 -17 36 -51q-41 -7 -56 -34q-16 -27 -26.5 -67t-21 -98.5t-17.5 -87.5q-3 -12 -10 -41.5t-10 -42.5t-10.5 -36t-14 -35t-17 -25.5t-23.5 -21.5q-5 -4 -20.5 -7t-20.5 0 q-23 14 -16 32q7 17 23 17.5t24 -17.5q38 20 61 142q6 33 9.5 84.5t6.5 89t10.5 74t26.5 56t51 19.5q-31 23 -32 63.5t14 77.5t42 97.5t39 98.5q30 97 7 141q-15 -22 -31 -17t-17 21t22 29q7 4 25.5 -1.5t20.5 -10.5z" />
<glyph unicode="~" horiz-adv-x="500" d="M469 306q-48 -100 -150 -96q-43 1 -97 28q-48 25 -79 26q-26 1 -46 -11t-29 -31q-2 -12 -18.5 -12.5t-16.5 13.5q19 41 57 69t93 25q41 -2 96 -27q43 -26 81 -27q51 -1 74 45q3 11 19.5 10.5t15.5 -12.5z" />
<glyph unicode="&#xa1;" horiz-adv-x="320" d="M238 391q0 -28 -15.5 -50.5t-39.5 -22.5q-21 0 -35 16t-14 38q0 29 15.5 50.5t41.5 21.5q21 0 34 -15t13 -38zM165 264q-57 -205 -65 -351q-3 -48 -4 -57q-1 -3 -2 -5v-1q-47 -56 -88 -132q-1 -3 -3.5 -4t-4 1t-1.5 7q0 15 -1.5 31t-1.5 24q0 29 -10 71v6q31 41 77.5 148 t92.5 266q1 3 4 2.5t5 -2.5t2 -4z" />
<glyph unicode="&#xa2;" horiz-adv-x="476" d="M421 363q0 -24 -11.5 -37.5t-30.5 -13.5t-30 12t-11 35q0 16 5 29.5t5 14.5q0 15 -22 16q-5 0 -7 -6l-112 -398q-2 -8 5 -8h8q32 0 63 19.5t53 48t35 49t18 32.5q3 4 9.5 3t3.5 -8q-5 -16 -19.5 -39.5t-37.5 -52t-57 -48.5t-71 -20q-7 0 -11 1q-4 0 -6 -5l-22 -76 q-3 -8 -12 -5q-3 1 -2 5l22 77q2 5 -6 8q-44 15 -76 55.5t-32 109.5q0 96 71.5 180.5t160.5 92.5q7 0 9 6q14 43 21 72q2 6 8 6t6 -6q-4 -15 -12 -41t-9 -30q-2 -6 3 -6q42 -3 66.5 -23.5t24.5 -48.5zM305 413q2 5 1 6t-4 -1h-2q-41 -7 -72.5 -47.5t-47 -95t-23 -100.5 t-7.5 -78q0 -64 36 -82q7 -4 10 3z" />
<glyph unicode="&#xa3;" horiz-adv-x="492" d="M530 591q0 -32 -16 -54.5t-41 -22.5q-18 0 -27.5 12.5t-9.5 29.5q0 22 11 31.5t36 16.5q19 5 19 22q0 23 -26.5 46t-59.5 23q-71 0 -111.5 -77.5t-40.5 -181.5v-42q0 -12 12 -12l125 2q9 0 3 -11q-2 -5 -6 -5l-121 1q-12 0 -12 -10q-1 -74 -12 -121.5t-41 -97.5 q-4 -8 6 -12q9 -4 36.5 -18.5t43 -21.5t38 -14t40.5 -7q36 0 55 19.5t35 58.5q2 3 7.5 2t4.5 -7q-20 -66 -58.5 -108.5t-96.5 -42.5q-30 0 -56.5 13.5t-42.5 28.5t-41 44q-2 3 -5.5 2.5t-4.5 -2.5q-46 -51 -69 -66q-31 -20 -67 -20q-30 0 -52.5 21.5t-22.5 60.5 q0 38 27.5 70.5t88.5 32.5q45 0 97 -24q7 -3 11 4q13 30 13 66q0 20 -2.5 41.5t-9 54.5t-7.5 41q-1 5 -1.5 6.5t-3.5 3.5t-9 2l-103 -1q-2 0 -4 3q-5 10 4 13h5q17 -1 95 -1q9 0 11 2.5t1 8.5q-5 30 -5 70q0 107 71.5 177t165.5 70q52 0 87.5 -34.5t35.5 -85.5zM155 91 q4 7 -3 15q-47 43 -91 43q-35 0 -59.5 -22.5t-24.5 -60.5q0 -23 14.5 -42.5t50.5 -19.5q64 0 113 87z" />
<glyph unicode="&#xa4;" horiz-adv-x="730" d="M709 688q-32 -137 -37 -176q-2 -5 -8.5 -3t-5.5 7q9 82 -30 121l-12.5 12.5l-13 13t-11.5 11t-12.5 10.5t-13 8t-15.5 7.5t-16.5 5t-19.5 3.5t-22 1q-79 0 -138 -77.5t-97 -196.5q168 0 287 11q39 4 49 -21q7 -21 -15 -33q-13 -7 -33 -6q-115 8 -299 10q-13 -49 -21 -99 q216 -7 322 8q36 5 45 -21q7 -22 -14 -35q-13 -7 -32 -5q-137 17 -327 11q-3 -30 -3 -55q0 -27 4 -52.5t15 -52t28 -46t45 -32t64 -12.5q55 0 110.5 35.5t70.5 57.5q9 13 18 8t-4 -20q-87 -97 -200 -97q-97 0 -166.5 73t-76.5 189l-66 -6q-31 -3 -44.5 13t-0.5 32.5t44 14.5 q44 -2 67 -4q1 43 13 93q-56 -4 -82 -8q-36 -5 -45 21q-7 22 14 35q13 7 32 5q47 -6 94 -9q45 129 145.5 208t202.5 79q32 0 60.5 -11t45 -24.5t32 -24.5t25.5 -11q12 0 18 5t11 18t5 14q-1 9 8.5 6.5t5.5 -9.5z" />
<glyph unicode="&#xa5;" horiz-adv-x="522" d="M605 703q10 -2 3 -11q-4 -5 -7 -5h-8q-29 0 -45 -24l-229 -344q-3 -3 3 -3h135q6 0 3 -9q-2 -7 -7 -7h-144q-5 0 -8 -4l-3 -7l-22 -81q0 -4 3 -4h75q75 -1 77 0q8 0 3 -11q-3 -5 -6 -5q-75 2 -152 0q-4 0 -5 -4l-43 -165q0 -4 4 -4h76q6 0 1 -11q-2 -5 -5 -5 q-192 2 -243 0q-2 0 -3 4t0.5 8t4.5 4h67q5 0 5 5l45 165q0 3 -6 3q-23 1 -48 1t-55 -0.5t-45 -0.5q-4 0 -4 8t9 8h150q4 0 5 3t12.5 45t11.5 43q1 4 -3 4q-1 1 -75 1l-74 -1q-4 0 -5.5 4t0.5 8t7 4h149q4 0 3 4l-29 362q0 6 -6 6h-64q-6 0 -3 9q2 7 7 7q116 3 231 0 q8 0 2 -10q-2 -4 -5 -5l-67 2q-6 0 -6 -2l19 -366h4l204 296q30 45 30 57t-58 12h-13q-6 0 -4 9q2 7 8 7q50 -2 143 0z" />
<glyph unicode="&#xa6;" horiz-adv-x="199" d="M151 720q-2 -172 -1 -257q0 -14 -12.5 -19t-27 1t-16.5 18l1 257q3 14 25.5 17.5t30.5 -17.5zM150 0q0 -19 -28 -17.5t-28 17.5q2 176 0 260q2 19 26.5 21.5t29.5 -21.5v-260z" />
<glyph unicode="&#xa7;" horiz-adv-x="487" d="M464 574q0 -19 -13 -37t-43 -18q-19 0 -31 12t-12 30q0 20 10.5 32t29.5 12q20 0 20 8q0 18 -29 31t-71 13q-54 0 -99.5 -28.5t-45.5 -78.5q0 -32 27 -61t65.5 -52.5t77 -47.5t65.5 -57t27 -70q0 -109 -125 -180q-7 -4 -1 -10q18 -32 18 -79q0 -79 -59.5 -140.5 t-162.5 -61.5q-72 0 -114.5 34.5t-42.5 85.5q0 29 15 50.5t42 21.5q20 0 34 -13.5t14 -33.5q0 -23 -13.5 -34t-31.5 -11q-8 0 -15 2.5t-11 2.5q-12 0 -12 -14q0 -30 43 -53.5t90 -23.5q73 0 124 36t51 110q0 36 -26.5 67t-64 54.5t-75 46.5t-64 55t-26.5 70q0 53 38.5 98.5 t88.5 73.5q4 4 0 8q-25 32 -25 76q0 71 59 121t134 50q61 0 100.5 -27t39.5 -70zM397 205q0 29 -26 52t-86.5 63.5t-108.5 85.5q-6 3 -9 1q-4 -3 -18 -12.5t-19.5 -13.5t-17 -13t-16.5 -15.5t-11.5 -16t-9 -19.5t-2.5 -21q0 -27 32.5 -55t93.5 -69t99 -78q5 -6 13 -2 q37 20 61.5 51t24.5 62z" />
<glyph unicode="&#xa8;" horiz-adv-x="303" d="M303 610q0 -25 -14.5 -49.5t-36.5 -24.5q-32 0 -32 45q0 18 16 40.5t32 22.5q35 0 35 -34zM129 610q0 -25 -15 -49.5t-37 -24.5q-30 0 -30 45q0 18 15.5 40.5t31.5 22.5q35 0 35 -34z" />
<glyph unicode="&#xa9;" horiz-adv-x="719" d="M696 360q0 -134 -95 -229t-229 -95t-229 95t-95 229t95 229t229 95t229 -95t95 -229zM679 360q0 127 -90 217t-217 90t-217 -90t-90 -217t90 -217t217 -90t217 90t90 217zM544 546l-28 -141q-1 -5 -11 -2q-4 1 -3 3q6 26 6 54q0 40 -28.5 65.5t-67.5 25.5 q-50 0 -88.5 -56.5t-55 -121t-16.5 -112.5q0 -43 20.5 -73.5t70.5 -31.5q25 0 49 11.5t41 29t26.5 30t14.5 22.5q2 8 11 2q8 -5 4 -10l-4 -7q-4 -7 -7.5 -12t-10 -14t-13 -15.5t-16 -15.5t-20 -15t-22.5 -11.5t-26.5 -8.5t-29.5 -3q-60 0 -101 46t-41 119q0 113 69.5 188 t148.5 75q24 0 44 -10t33 -20t19 -10q5 0 8.5 2.5t5 5t2.5 7t2 5.5q0 7 10 4q6 -2 4 -5z" />
<glyph unicode="&#xaa;" horiz-adv-x="331" d="M396 504q0 -1 -5 -10.5t-9.5 -16.5t-12 -15.5t-18 -13.5t-22.5 -5q-13 0 -21 4t-11 14t-3.5 13.5t-1.5 16.5q-12 -20 -33.5 -34.5t-44.5 -14.5q-38 0 -60 29t-22 73q0 62 47.5 113t100.5 51q25 0 40 -15t18 -32v-1l12 35q2 6 8 6q16 -2 31 0q6 0 4 -6l-59 -191 q-6 -18 -6 -31q0 -14 10 -14q11 0 19.5 9t16.5 26l9 16q1 1 7 -1t6 -5zM327 642q0 18 -12 34t-35 16q-31 0 -55 -39t-33.5 -80.5t-9.5 -69.5q0 -42 36 -42q60 0 87 97q22 74 22 84z" />
<glyph unicode="&#xab;" horiz-adv-x="339" d="M312 387q-20 -23 -62 -63t-62 -62q-8 -9 -8.5 -10.5t5.5 -11.5q16 -27 50.5 -76t47.5 -68q12 -18 -3 -29t-25 4q0 2 -1 3q-46 103 -84 167q-6 10 -5.5 13t9.5 12q31 33 112 147q12 16 25.5 2.5t0.5 -28.5zM184 386q-20 -23 -62 -63t-62 -62q-8 -9 -8.5 -10.5t5.5 -11.5 q16 -27 50.5 -76t47.5 -68q12 -18 -3 -29t-25 4q0 2 -1 3q-46 103 -84 167q-6 10 -5.5 13t9.5 12q31 33 112 147q12 16 25.5 2.5t0.5 -28.5z" />
<glyph unicode="&#xac;" horiz-adv-x="536" d="M508 132q2 -23 -13.5 -32t-31 0.5t-13.5 31.5q14 128 5 197q-226 10 -406 -4q-25 -2 -35 13.5t0.5 31.5t34.5 14q104 -8 240 -8t198 8q19 3 21.5 -1.5t-0.5 -20.5q-10 -128 0 -230z" />
<glyph unicode="&#xad;" horiz-adv-x="320" d="M263 206q-96 12 -193 0q-36 -5 -45 22q-7 22 14 34q13 8 32 5q66 -9 101.5 -9.5t89.5 8.5q37 7 47 -18q10 -22 -11 -36q-13 -9 -35 -6z" />
<glyph unicode="&#xae;" horiz-adv-x="719" d="M706 360q0 -134 -95 -229t-229 -95t-229 95t-95 229t95 229t229 95t229 -95t95 -229zM689 360q0 127 -90 217t-217 90t-217 -90t-90 -217t90 -217t217 -90t217 90t90 217zM549 494q0 -53 -33.5 -82.5t-81.5 -33.5q-1 0 -1 -1t1 -1q26 -3 47.5 -22t21.5 -44q0 -17 -10 -59 t-10 -52q-1 -8 2 -11.5t11 -0.5q10 4 6.5 18.5t13.5 16.5q8 3 12.5 -4t4.5 -13q0 -33 -43 -33q-25 0 -38 18t-13 36q0 8 9.5 57t9.5 57q0 32 -47 32h-64q-4 0 -5 -4l-46 -181q1 -2 4 -3l41 1q1 0 1.5 -3.5t-1.5 -7t-6 -3.5h-129q-1 0 -3.5 -1t-4.5 -1t-2 3.5t1.5 7.5t5.5 4 h35q4 0 4 3l95 368q1 3 -2 3h-43q-2 0 -2 3t1 6.5t4 3.5h175q43 0 61 -24t18 -53zM501 517q0 41 -45 41h-62q-4 0 -4 -3l-42 -166q0 -4 5 -4h68q37 0 58.5 42.5t21.5 89.5z" />
<glyph unicode="&#xaf;" horiz-adv-x="290" d="M322 605l-8 -48h-238l7 48h239z" />
<glyph unicode="&#xb0;" horiz-adv-x="355" d="M355 567q0 -59 -42 -101.5t-101 -42.5t-102 42.5t-43 101.5t42.5 101.5t101.5 42.5t101.5 -42.5t42.5 -101.5z" />
<glyph unicode="&#xb1;" horiz-adv-x="518" d="M470 296q-95 9 -189 9q-1 -20 3.5 -93.5t5.5 -105.5q0 -20 -14.5 -28.5t-29 -0.5t-14.5 28q1 27 6 100t3 100q-18 1 -49 -0.5t-75 -4.5t-70 -4q-23 -1 -31.5 14.5t1 30.5t31.5 15q26 -1 95.5 -6t96.5 -3q1 18 0 50.5t-4 80.5t-4 74q-1 22 14 31t30 0t14 -31 q-1 -24 -4 -65.5t-4.5 -72.5t-0.5 -67q31 -1 61.5 0.5t66 4.5t60.5 4q22 1 30.5 -15t0 -31.5t-29.5 -13.5zM467 0q-289 18 -422 0q-36 -5 -45 21q-7 22 14 35q13 7 32 5q185 -24 420 -1q31 3 44.5 -13t0.5 -32.5t-44 -14.5z" />
<glyph unicode="&#xb2;" horiz-adv-x="319" d="M351 399q-35 -47 -57 -95q-3 -6 -8 -8q-76 5 -167 2q0 1 -44 0q-65 -2 -65 0q18 12 71.5 54.5t65.5 54.5q11 10 42 37.5t44 41.5t27.5 40.5t16.5 54.5q4 49 -20 75t-62 25q-42 -1 -71.5 -25t-32.5 -58q-3 -42 24 -63q9 -6 9 -1q-8 39 21 54q25 12 41 -7q7 -8 9 -20 q1 -9 -7.5 -22t-24.5 -20q-27 -11 -52.5 3t-31.5 46q-10 57 29.5 94.5t104.5 35.5q60 -2 96.5 -37.5t31.5 -99.5q-2 -24 -14 -46t-28 -38.5t-41 -34.5t-45.5 -30t-49.5 -28.5t-46 -27.5l-3 -2q-6 -5 -6 -6q69 1 194 6q3 0 8.5 6t16 20.5t16.5 22.5q2 10 9 5.5t-1 -9.5z" />
<glyph unicode="&#xb3;" horiz-adv-x="309" d="M349 402q0 -70 -59.5 -117.5t-133.5 -45.5q-118 3 -118 92q0 23 15 40.5t36 17.5q14 0 23.5 -10t9.5 -26q0 -15 -9 -25t-21 -10q-7 0 -13 2t-11 2q-14 0 -14 -14q0 -20 24.5 -39t58.5 -19q69 0 107.5 50t38.5 118q0 28 -8 46.5t-23.5 27.5t-28.5 13t-32 6q-4 1 4 5 q14 5 18 7q50 26 68.5 54.5t15.5 69.5q-2 32 -23 49.5t-46 17.5q-26 -1 -44 -15t-18 -25q0 -4 2 -6t11 -4q18 -3 18 -23q0 -12 -8 -19.5t-18 -7.5q-27 0 -27 30q0 38 28.5 58t63.5 21q47 1 79.5 -20t32.5 -65q0 -42 -30 -72.5t-66 -42.5q31 0 64 -36t33 -85z" />
<glyph unicode="&#xb4;" horiz-adv-x="277" d="M277 682q0 -15 -8 -24t-33 -21q-48 -24 -150 -90q86 90 119 134q20 27 39 26q11 1 22 -6.5t11 -18.5z" />
<glyph unicode="&#xb5;" horiz-adv-x="493" d="M457 94q-39 -100 -113 -100q-30 0 -47.5 17.5t-17.5 47.5q0 19 17 70q0 8 -4 2q-47 -67 -90.5 -102t-94.5 -35q-17 0 -33 28q-35 -89 -69 -255q-10 -47 -39 -51q-23 -3 -32 21q-6 18 2 42q76 220 179 584q3 12 -3 24.5t-18 12.5q-38 0 -67 -78q-3 -9 -8.5 -6.5t-1.5 11.5 q35 95 94 93q35 -1 54.5 -25t11.5 -52l-77 -258q-10 -36 -10 -41q0 -34 37 -34q42 0 105.5 65t86.5 145l57 192q3 7 16 10q31 5 52 -1q9 -3 9 -5q1 -2 0 -4l-100 -327q-7 -24 -7 -43q0 -8 7 -16t19 -8q39 0 73 83q3 10 10.5 4.5t1.5 -11.5z" />
<glyph unicode="&#xb6;" horiz-adv-x="534" d="M589 704q7 0 3.5 -8t-15.5 -8h-61q-8 0 -10 -10l-229 -899q-1 -2 1.5 -4t4.5 -2l65 1q9 0 3 -11q-3 -5 -6 -5q-61 1 -120 0q-8 0 -6 7l232 913q1 3 -1 6.5t-5 3.5h-38q-8 0 -10 -8l-234 -914q-2 -8 -11 -8q-1 1 -60.5 0.5t-60.5 -0.5q-6 0 -6.5 8t10.5 8l67 -2q9 0 10 7 l127 503q2 8 -0.5 10t-9.5 1q-63 3 -102 42.5t-39 116.5q0 116 74 184t189 68h238zM341 678q1 4 -14 4q-75 -9 -116 -75.5t-41 -160.5q0 -104 64 -129q13 -3 17 7z" />
<glyph unicode="&#xb7;" horiz-adv-x="211" d="M187 308q0 -23 -14.5 -38.5t-35.5 -15.5t-35.5 15.5t-14.5 38.5t14.5 38.5t35.5 15.5t35.5 -15.5t14.5 -38.5z" />
<glyph unicode="&#xb8;" horiz-adv-x="180" d="M178 -134q0 -81 -111 -81q-56 0 -93 22q-5 3 2 10q5 4 12 3q33 -10 65 -10q25 0 44.5 12.5t19.5 41.5q0 18 -12.5 28.5t-31.5 10.5q-18 0 -36 -6l-5 10l56 93h22l-46 -73l2 -2q16 8 47 8q26 0 45.5 -18.5t19.5 -48.5z" />
<glyph unicode="&#xb9;" horiz-adv-x="280" d="M347 702q2 1 3 -2q3 -9 -3 -13q-1 -1 -3 -1q-48 2 -62 1l-3 -3l-96 -382l2 -3q27 -2 62 1q5 1 5 -5q0 -9 -8 -11q-96 1 -190 0q-2 -1 -2 2q-3 9 2 13q1 1 2 1q51 -2 63 -1q1 0 27.5 99.5t51 196t20.5 89.5q0 3 -3 3q-26 2 -62 -1q-4 -1 -5 5q1 9 10 11q94 -1 189 0z" />
<glyph unicode="&#xba;" horiz-adv-x="312" d="M377 614q0 -71 -47.5 -120.5t-107.5 -49.5q-51 0 -77 29.5t-26 75.5q0 60 47 110.5t114 50.5q38 0 67.5 -26.5t29.5 -69.5zM321 649q0 47 -45 47q-38 0 -62 -41q-12 -18 -25.5 -72t-13.5 -78q0 -47 46 -47q39 0 58 34q13 21 27.5 75.5t14.5 81.5z" />
<glyph unicode="&#xbb;" horiz-adv-x="323" d="M304 242q6 -10 5.5 -13t-9.5 -12q-31 -33 -112 -147q-12 -16 -25.5 -2.5t-0.5 28.5q20 23 62 63t62 62q8 9 8.5 10.5t-5.5 11.5q-16 27 -50.5 76t-47.5 68q-12 18 3 29t25 -4q0 -2 1 -3q46 -103 84 -167zM176 241q6 -10 5.5 -13t-9.5 -12q-31 -33 -112 -147 q-12 -16 -25.5 -2.5t-0.5 28.5q20 23 62 63t62 62q8 9 8.5 10.5t-5.5 11.5q-16 27 -50.5 76t-47.5 68q-12 18 3 29t25 -4q0 -2 1 -3q46 -103 84 -167z" />
<glyph unicode="&#xbc;" horiz-adv-x="793" d="M745 557l-87 -365q0 -6 2 -6h17l17 10q17 9 22 12q7 0 7 -3q0 -5 -4 -27t-8 -28q-3 -5 -6 -5q-43 0 -54 1q-5 0 -7 -5l-35 -122q-1 -1 0.5 -2t3.5 -1h52q6 1 6 -5q-2 -10 -10 -10q-116 2 -175 0q-7 0 -6.5 9t9.5 7l56 -1l4 3l36 124q0 3 -4 3h-187q-3 0 -4 6l334 388 q19 18 21 17zM597 690q-162 -263 -404 -695q-18 -31 -35 -24q-15 7 -4 31q2 3 4 7q51 81 116 194t153.5 271t128.5 229q15 26 36 25q18 -1 12 -22q-2 -8 -7 -16zM367 697q2 1 3 -2q3 -9 -3 -13q-1 -1 -3 -1q-48 2 -62 1l-3 -3l-95 -381l2 -3q27 -2 62 1q5 1 5 -5 q0 -9 -8 -11q-96 1 -190 0q-2 -1 -3 2q-2 9 3 13q1 1 2 1q51 -2 63 -1q1 0 27 99.5t50.5 195.5t20.5 89q0 3 -3 3q-26 2 -62 -1q-4 -1 -5 5q1 9 10 11q94 -1 189 0zM682 466l-232 -268q-4 -8 -2.5 -9t8.5 -1h139l4 2z" />
<glyph unicode="&#xbd;" horiz-adv-x="739" d="M697 103q-32 -42 -58 -95q-3 -6 -7 -8q-77 5 -167 2q0 1 -44 0q-66 -2 -66 0q18 12 71.5 54.5t65.5 54.5q12 11 41.5 37.5t43.5 41t29 41t17 54.5q4 49 -20 73t-63 23q-42 -1 -69.5 -23.5t-30.5 -55.5q-4 -42 20 -60q9 -6 10 0q-8 40 22 52q24 11 40 -9q7 -8 8 -20 q1 -9 -7 -22t-24 -20q-28 -11 -53.5 3t-31.5 46q-10 58 29.5 95t105.5 35q60 -2 96 -37.5t31 -99.5q-2 -29 -16.5 -54t-41.5 -46.5t-50 -36.5t-60 -36t-55 -32l-3 -2l-7 -6q55 1 187 6q3 0 8.5 6.5t15 20.5t16.5 23q2 11 14 5q10 -5 3 -10zM579 692q-162 -263 -404 -695 q-18 -31 -35 -24q-15 7 -4 31q2 3 4 7q147 235 398 694q14 26 36 25q18 -1 12 -22q-2 -8 -7 -16zM349 690q2 1 3 -2q1 -10 -5 -13q-41 2 -59 1q-1 0 -1 -1l-1 -2l-92 -362q-2 -3 2 -3q22 -1 58 1q5 1 5 -5q-1 -8 -9 -10q-89 1 -178 0q-2 -1 -3 2q0 10 6 13q39 -2 58 -1 q1 0 26 94.5t48.5 186t19.5 84.5q0 3 -1 3q-21 1 -59 -1q-5 -1 -5 5q0 10 9 10q89 -1 178 0z" />
<glyph unicode="&#xbe;" horiz-adv-x="759" d="M762 556l-87 -365q0 -6 3 -6h16q2 1 11 6t17 9.5t11 6.5q7 0 7 -3q0 -4 -4 -26.5t-7 -28.5q-3 -5 -7 -5q-43 0 -54 1q-4 0 -7 -5l-36 -126q-1 -1 0.5 -2t3.5 -1h53q5 1 5 -3q-1 -8 -8 -8q-117 2 -176 0q-7 0 -7 7t9 5l57 -1l3 3l37 128q0 3 -4 3h-187q-3 0 -4 6l334 388 q4 6 6 8t6.5 7t5.5 4t3 -2zM642 700q-162 -263 -404 -695q-18 -31 -35 -24q-15 7 -4 31q2 3 4 7q51 81 116 194t153.5 271t128.5 229q15 26 36 25q18 -1 12 -22q-2 -8 -7 -16zM355 416q0 -70 -61 -117.5t-135 -45.5q-117 3 -117 92q0 23 15 40.5t36 17.5q14 0 23.5 -10 t9.5 -26q0 -15 -9 -25t-21 -10q-7 0 -13 2t-11 2q-14 0 -14 -14q0 -20 24.5 -39t58.5 -19q69 0 107.5 50t38.5 118q0 28 -8 46.5t-23.5 27.5t-28.5 13t-32 6q-4 1 4 5q14 5 18 7q50 25 68 54t15 70q-2 32 -22.5 49.5t-45.5 17.5q-26 -1 -44 -15t-18 -25q0 -6 12 -10 q19 -3 19 -23q0 -12 -8 -19.5t-18 -7.5q-27 0 -27 30q0 38 28.5 58t63.5 21q47 1 79.5 -20t32.5 -65q0 -68 -97 -115h1q31 0 65 -36t34 -85zM699 470l-237 -273q-6 -7 -4 -8.5t10 -1.5h144l4 2z" />
<glyph unicode="&#xbf;" horiz-adv-x="357" d="M298 393q0 -28 -16 -50.5t-40 -22.5q-21 0 -35 16t-14 38q0 29 16 50.5t42 21.5q21 0 34 -15t13 -38zM226 260l-44 -131q-24 -71 -36.5 -91t-38.5 -33q-7 -4 -38.5 -17.5t-48.5 -23t-40.5 -26.5t-34.5 -38t-11 -47q0 -49 35 -78t82 -29q40 0 69 22.5t29 50.5q0 13 -21 16 q-10 1 -20.5 10.5t-10.5 27.5q0 20 12 32.5t31 12.5q21 0 31 -17.5t10 -40.5q0 -50 -38 -87t-96 -37q-59 0 -97 40.5t-38 112.5q0 66 31.5 105t88.5 71l116 65q19 10 27 22.5t20 48.5l22 63q2 3 6 2t3 -6z" />
<glyph unicode="&#xc0;" d="M515 789q8 -5 4 -6q-2 0 -11 5q-71 44 -158 86q-20 16 -22 28q-2 11 4.5 23t16.5 13q21 2 35 -12q77 -85 131 -137zM492 18q9 1 6 -10q-2 -8 -8 -8q-151 2 -226 0q-7 0 -6 9q1 8 9 8l76 1l5 4l-7 226q0 4 -6 4h-190q-5 0 -7 -4l-111 -194q-12 -21 -12 -24q0 -12 43 -13 l27 -1q7 0 5 -9q-1 -7 -8 -7q-76 1 -153 0q-7 0 -7.5 9.5t9.5 8.5l23 -1q29 -2 48 32l400 687l2 2q6 1 10 0q3 -2 3 -3l20 -714q0 -4 6 -4q9 0 24 0.5t25 0.5zM340 273l-4 311q0 5 -2 1l-180 -310q-1 -1 -1.5 -3.5t2.5 -3.5h180z" />
<glyph unicode="&#xc1;" d="M487 913q0 -15 -8 -24t-33 -21q-48 -24 -150 -90q86 90 119 134q20 27 39 26q11 1 22 -6.5t11 -18.5zM492 18q9 1 6 -10q-2 -8 -8 -8q-151 2 -226 0q-7 0 -6 9q1 8 9 8l76 1l5 4l-7 226q0 4 -6 4h-190q-5 0 -7 -4l-111 -194q-12 -21 -12 -24q0 -12 43 -13l27 -1q7 0 5 -9 q-1 -7 -8 -7q-76 1 -153 0q-7 0 -7.5 9.5t9.5 8.5l23 -1q29 -2 48 32l400 687l2 2q6 1 10 0q3 -2 3 -3l20 -714q0 -4 6 -4q9 0 24 0.5t25 0.5zM340 273l-4 311q0 5 -2 1l-180 -310q-1 -1 -1.5 -3.5t2.5 -3.5h180z" />
<glyph unicode="&#xc2;" d="M535 769q4 -6 0 -6q-6 0 -14 8l-88 94q-3 4 -9 2q-72 -44 -140 -93q-21 -14 -20 -8q0 3 4 7q57 55 149 169q27 13 37 -5q49 -111 81 -168zM492 18q9 1 6 -10q-2 -8 -8 -8q-151 2 -226 0q-7 0 -6 9q1 8 9 8l76 1l5 4l-7 226q0 4 -6 4h-190q-5 0 -7 -4l-111 -194 q-12 -21 -12 -24q0 -12 43 -13l27 -1q7 0 5 -9q-1 -7 -8 -7q-76 1 -153 0q-7 0 -7.5 9.5t9.5 8.5l23 -1q29 -2 48 32l400 687l2 2q6 1 10 0q3 -2 3 -3l20 -714q0 -4 6 -4q9 0 24 0.5t25 0.5zM340 273l-4 311q0 5 -2 1l-180 -310q-1 -1 -1.5 -3.5t2.5 -3.5h180z" />
<glyph unicode="&#xc3;" d="M560 898q-34 -100 -104 -96q-33 1 -68 28q-36 25 -55 26q-37 3 -53 -42q-1 -7 -7 -10.5t-11.5 -0.5t-5.5 12q13 41 39.5 69t64.5 25q35 -3 67 -27q38 -26 57 -27q36 -1 52 45q1 7 7.5 9.5t11.5 -0.5t5 -11zM492 18q9 1 6 -10q-2 -8 -8 -8q-151 2 -226 0q-7 0 -6 9 q1 8 9 8l76 1l5 4l-7 226q0 4 -6 4h-190q-5 0 -7 -4l-111 -194q-12 -21 -12 -24q0 -12 43 -13l27 -1q7 0 5 -9q-1 -7 -8 -7q-76 1 -153 0q-7 0 -7.5 9.5t9.5 8.5l23 -1q29 -2 48 32l400 687l2 2q6 1 10 0q3 -2 3 -3l20 -714q0 -4 6 -4q9 0 24 0.5t25 0.5zM340 273l-4 311 q0 5 -2 1l-180 -310q-1 -1 -1.5 -3.5t2.5 -3.5h180z" />
<glyph unicode="&#xc4;" d="M552 874q0 -25 -14.5 -49.5t-36.5 -24.5q-32 0 -32 45q0 18 16 40.5t32 22.5q35 0 35 -34zM378 874q0 -25 -15 -49.5t-37 -24.5q-30 0 -30 45q0 18 15.5 40.5t31.5 22.5q35 0 35 -34zM492 18q9 1 6 -10q-2 -8 -8 -8q-151 2 -226 0q-7 0 -6 9q1 8 9 8l76 1l5 4l-7 226 q0 4 -6 4h-190q-5 0 -7 -4l-111 -194q-12 -21 -12 -24q0 -12 43 -13l27 -1q7 0 5 -9q-1 -7 -8 -7q-76 1 -153 0q-7 0 -7.5 9.5t9.5 8.5l23 -1q29 -2 48 32l400 687l2 2q6 1 10 0q3 -2 3 -3l20 -714q0 -4 6 -4q9 0 24 0.5t25 0.5zM340 273l-4 311q0 5 -2 1l-180 -310 q-1 -1 -1.5 -3.5t2.5 -3.5h180z" />
<glyph unicode="&#xc5;" d="M511 851q0 -39 -27 -68t-63 -29t-62.5 29t-26.5 68t26.5 68t62.5 29t63 -29t27 -68zM492 18q9 1 6 -10q-2 -8 -8 -8q-151 2 -226 0q-7 0 -6 9q1 8 9 8l76 1l5 4l-7 226q0 4 -6 4h-190q-5 0 -7 -4l-111 -194q-12 -21 -12 -24q0 -12 43 -13l27 -1q7 0 5 -9q-1 -7 -8 -7 q-76 1 -153 0q-7 0 -7.5 9.5t9.5 8.5l23 -1q29 -2 48 32l400 687l2 2q6 1 10 0q3 -2 3 -3l20 -714q0 -4 6 -4q9 0 24 0.5t25 0.5zM490 851q0 31 -20 52.5t-47 21.5q-28 0 -48 -21.5t-20 -52.5t20 -52.5t48 -21.5q27 0 47 21.5t20 52.5zM340 273l-4 311q0 5 -2 1l-180 -310 q-1 -1 -1.5 -3.5t2.5 -3.5h180z" />
<glyph unicode="&#xc6;" horiz-adv-x="793" d="M844 700q-20 -93 -27 -183q0 -4 -4 -5.5t-7.5 0t-3.5 5.5q5 33 5 58q0 47 -20 73.5t-45 33t-61 6.5h-119q-2 0 -4 -3l-77 -296h78q33 0 47.5 2t30 12.5t23 31.5t16.5 61q0 4 7.5 5t7.5 -5q-15 -64 -56 -259q0 -3 -4 -4t-7 0.5t-3 3.5q15 69 15 85q0 51 -53 51h-106 l-91 -353q-1 -4 4 -4h106q102 0 165 43.5t83 153.5q1 2 4.5 3.5t6.5 1t3 -4.5q-21 -97 -42 -208q-1 -5 -8 -5q-246 1 -491 0q-7 0 -3 11q2 5 6 5q23 -1 67 -1q4 0 5 3l58 224q4 10 -5 10h-189q-3 0 -6 -4l-158 -210q-4 -5 -4 -11q0 -11 24 -11h47q2 0 3 -4t-0.5 -8t-5.5 -4 q-72 2 -145 0q-3 0 -4 4t0.5 8t6.5 4q40 0 51 15l494 654q1 2 0 2.5t-5 0.5h-66q-5 0 -5 8t9 8q297 -2 447 0q5 0 5 -4zM467 672q0 2 -0.5 2.5t-1.5 -0.5l-296 -400q-6 -6 0 -6h179q8 0 11 8z" />
<glyph unicode="&#xc7;" horiz-adv-x="599" d="M653 690l-50 -244q-1 -3 -5 -3.5t-7 2t-2 5.5q11 37 11 93q0 69 -49 118.5t-115 49.5q-53 0 -100 -39t-78 -98.5t-54 -130.5t-33.5 -133.5t-10.5 -107.5q0 -27 4 -52.5t15 -52t28 -46t45 -32t64 -12.5q141 0 231 163l3 6q2 13 13 6q11 -6 3 -14q-110 -191 -277 -176 l-44 -69l2 -2q16 8 47 8q26 0 45.5 -18.5t19.5 -48.5q0 -81 -111 -81q-56 0 -93 22q-5 3 2 10q5 4 12 3q33 -10 65 -10q25 0 44.5 12.5t19.5 41.5q0 18 -12.5 28.5t-31.5 10.5q-18 0 -36 -6l-5 10l55 92q-85 16 -143 93.5t-58 186.5q0 99 35 185.5t90 143.5t121 90t129 33 q32 0 60.5 -11t45 -24.5t32 -24.5t25.5 -11q12 0 18 5t11 18t5 14q-1 9 8.5 6.5t5.5 -9.5z" />
<glyph unicode="&#xc8;" horiz-adv-x="524" d="M488 787q8 -5 4 -6q-2 0 -11 5q-71 44 -158 86q-20 16 -22 28q-2 11 4.5 23t16.5 13q21 2 35 -12q77 -85 131 -137zM587 697q-17 -96 -28 -179q0 -9 -10 -8q-7 1 -6 7q6 33 6 58q0 47 -20 73.5t-45 33t-61 6.5h-119q-4 0 -6 -5l-74 -290q0 -4 4 -4h78q27 0 39 1t27 6.5 t22 17.5t14.5 32.5t14.5 53.5q1 4 6 5t9 -1t4 -5q-40 -149 -61 -264q-2 -9 -13 -6q-7 1 -6 6q16 68 16 89q0 49 -48 49h-102l-3 1q-3 1 -6 0.5t-4 -4.5l-91 -348q4 -6 7 -6h108q102 0 164 44t81 156q2 7 7 8.5t8 -2t2 -8.5q-15 -74 -43 -208q-2 -6 -7 -6q-246 2 -492 0 q-8 0 -4 9q2 7 8 7l68 1q4 0 4 4l170 659l-2 6l-79 2q-9 0 -6 9q2 7 9 7q226 -1 453 0q8 0 7 -7z" />
<glyph unicode="&#xc9;" horiz-adv-x="524" d="M503 912q0 -15 -8 -24t-33 -21q-48 -24 -150 -90q86 90 119 134q20 27 39 26q11 1 22 -6.5t11 -18.5zM587 697q-17 -96 -28 -179q0 -9 -10 -8q-7 1 -6 7q6 33 6 58q0 47 -20 73.5t-45 33t-61 6.5h-119q-4 0 -6 -5l-74 -290q0 -4 4 -4h78q27 0 39 1t27 6.5t22 17.5 t14.5 32.5t14.5 53.5q1 4 6 5t9 -1t4 -5q-40 -149 -61 -264q-2 -9 -13 -6q-7 1 -6 6q16 68 16 89q0 49 -48 49h-102l-3 1q-3 1 -6 0.5t-4 -4.5l-91 -348q4 -6 7 -6h108q102 0 164 44t81 156q2 7 7 8.5t8 -2t2 -8.5q-15 -74 -43 -208q-2 -6 -7 -6q-246 2 -492 0q-8 0 -4 9 q2 7 8 7l68 1q4 0 4 4l170 659l-2 6l-79 2q-9 0 -6 9q2 7 9 7q226 -1 453 0q8 0 7 -7z" />
<glyph unicode="&#xca;" horiz-adv-x="524" d="M525 769q4 -6 0 -6q-6 0 -14 8l-88 94q-3 4 -9 2q-72 -44 -140 -93q-21 -14 -20 -8q0 3 4 7q57 55 149 169q27 13 37 -5q49 -111 81 -168zM587 697q-17 -96 -28 -179q0 -9 -10 -8q-7 1 -6 7q6 33 6 58q0 47 -20 73.5t-45 33t-61 6.5h-119q-4 0 -6 -5l-74 -290q0 -4 4 -4 h78q27 0 39 1t27 6.5t22 17.5t14.5 32.5t14.5 53.5q1 4 6 5t9 -1t4 -5q-40 -149 -61 -264q-2 -9 -13 -6q-7 1 -6 6q16 68 16 89q0 49 -48 49h-102l-3 1q-3 1 -6 0.5t-4 -4.5l-91 -348q4 -6 7 -6h108q102 0 164 44t81 156q2 7 7 8.5t8 -2t2 -8.5q-15 -74 -43 -208 q-2 -6 -7 -6q-246 2 -492 0q-8 0 -4 9q2 7 8 7l68 1q4 0 4 4l170 659l-2 6l-79 2q-9 0 -6 9q2 7 9 7q226 -1 453 0q8 0 7 -7z" />
<glyph unicode="&#xcb;" horiz-adv-x="524" d="M519 874q0 -25 -14.5 -49.5t-36.5 -24.5q-32 0 -32 45q0 18 16 40.5t32 22.5q35 0 35 -34zM345 874q0 -25 -15 -49.5t-37 -24.5q-30 0 -30 45q0 18 15.5 40.5t31.5 22.5q35 0 35 -34zM587 697q-17 -96 -28 -179q0 -9 -10 -8q-7 1 -6 7q6 33 6 58q0 47 -20 73.5t-45 33 t-61 6.5h-119q-4 0 -6 -5l-74 -290q0 -4 4 -4h78q27 0 39 1t27 6.5t22 17.5t14.5 32.5t14.5 53.5q1 4 6 5t9 -1t4 -5q-40 -149 -61 -264q-2 -9 -13 -6q-7 1 -6 6q16 68 16 89q0 49 -48 49h-102l-3 1q-3 1 -6 0.5t-4 -4.5l-91 -348q4 -6 7 -6h108q102 0 164 44t81 156 q2 7 7 8.5t8 -2t2 -8.5q-15 -74 -43 -208q-2 -6 -7 -6q-246 2 -492 0q-8 0 -4 9q2 7 8 7l68 1q4 0 4 4l170 659l-2 6l-79 2q-9 0 -6 9q2 7 9 7q226 -1 453 0q8 0 7 -7z" />
<glyph unicode="&#xcc;" horiz-adv-x="307" d="M384 789q8 -5 4 -6q-2 0 -11 5q-71 44 -158 86q-20 16 -22 28q-2 11 4.5 23t16.5 13q21 2 35 -12q77 -85 131 -137zM384 704q7 1 8 -7q1 -11 -10 -11h-2l-69 2q-7 0 -9 -7l-168 -653q-1 -2 0.5 -7t4.5 -5h72q9 1 9 -7q0 -9 -9 -9h-4h-243q-7 0 -7 9t7 9l67 -2q5 0 8 8 l170 657q2 7 -7 7l-74 -2q-8 0 -4 10q2 8 8 8q83 -2 252 0z" />
<glyph unicode="&#xcd;" horiz-adv-x="307" d="M377 913q0 -15 -8 -24t-33 -21q-48 -24 -150 -90q86 90 119 134q20 27 39 26q11 1 22 -6.5t11 -18.5zM384 704q7 1 8 -7q1 -11 -10 -11h-2l-69 2q-7 0 -9 -7l-168 -653q-1 -2 0.5 -7t4.5 -5h72q9 1 9 -7q0 -9 -9 -9h-4h-243q-7 0 -7 9t7 9l67 -2q5 0 8 8l170 657 q2 7 -7 7l-74 -2q-8 0 -4 10q2 8 8 8q83 -2 252 0z" />
<glyph unicode="&#xce;" horiz-adv-x="307" d="M404 769q4 -6 0 -6q-6 0 -14 8l-88 94q-3 4 -9 2q-72 -44 -140 -93q-21 -14 -20 -8q0 3 4 7q57 55 149 169q27 13 37 -5q49 -111 81 -168zM384 704q7 1 8 -7q1 -11 -10 -11h-2l-69 2q-7 0 -9 -7l-168 -653q-1 -2 0.5 -7t4.5 -5h72q9 1 9 -7q0 -9 -9 -9h-4h-243q-7 0 -7 9 t7 9l67 -2q5 0 8 8l170 657q2 7 -7 7l-74 -2q-8 0 -4 10q2 8 8 8q83 -2 252 0z" />
<glyph unicode="&#xcf;" horiz-adv-x="307" d="M415 874q0 -25 -14.5 -49.5t-36.5 -24.5q-32 0 -32 45q0 18 16 40.5t32 22.5q35 0 35 -34zM241 874q0 -25 -15 -49.5t-37 -24.5q-30 0 -30 45q0 18 15.5 40.5t31.5 22.5q35 0 35 -34zM384 704q7 1 8 -7q1 -11 -10 -11h-2l-69 2q-7 0 -9 -7l-168 -653q-1 -2 0.5 -7t4.5 -5 h72q9 1 9 -7q0 -9 -9 -9h-4h-243q-7 0 -7 9t7 9l67 -2q5 0 8 8l170 657q2 7 -7 7l-74 -2q-8 0 -4 10q2 8 8 8q83 -2 252 0z" />
<glyph unicode="&#xd0;" horiz-adv-x="634" d="M636 435q0 -105 -43.5 -204.5t-125.5 -165.5t-181 -65q-165 1 -330 0q-7 0 -7 10q1 9 11 6q11 -1 32 -1t34 -1q5 0 8 8l88 346q2 8 -3 8q-37 1 -72 0q-12 -4 -12 7q0 13 12 17q3 1 6 0q36 -2 69 0q7 0 8 5l73 279q1 4 -6 4q-69 0 -80 -2q-8 -1 -3 10q3 8 9 8h277 q60 0 106.5 -24t74 -64t41.5 -86t14 -95zM547 514q0 96 -40.5 135t-115.5 39h-90q-3 0 -5 -5l-72 -277q-2 -6 4 -6q0 -2 80 -1l79 1q12 2 14 -9q1 -12 -12 -15q-4 -1 -8 0q-131 2 -159 0q-5 0 -7 -7l-89 -347q-1 -6 5 -6h149q54 0 101 43t76.5 105t50.5 134t30 128t9 88z " />
<glyph unicode="&#xd1;" horiz-adv-x="670" d="M617 901q-34 -100 -104 -96q-33 1 -68 28q-36 25 -55 26q-37 3 -53 -42q-1 -7 -7 -10.5t-11.5 -0.5t-5.5 12q13 41 39.5 69t64.5 25q35 -3 67 -27q38 -26 57 -27q36 -1 52 45q1 7 7.5 9.5t11.5 -0.5t5 -11zM738 704q7 0 6 -8t-10 -8h-8q-37 0 -50 -10t-22 -42l-165 -628 q-3 -11 -21.5 -14.5t-23.5 8.5l-224 668q-1 1 -3 0l-146 -571q-12 -50 -12 -51q0 -36 47 -32l23 2q6 1 6 -7q1 -11 -9 -11q-84 3 -170 0q-7 0 -4 11q2 8 8 7l25 -2q34 -3 47.5 24.5t44.5 146.5l127 491q3 8 -4 8l-77 2q-7 0 -5 9q1 7 8 7q118 -2 175 0q4 0 4 -3l192 -583 l3 1l120 453q19 72 19 90q0 15 -13.5 20t-59.5 6q-2 0 -3 4t0.5 8t6.5 4q89 3 168 0z" />
<glyph unicode="&#xd2;" horiz-adv-x="652" d="M551 789q8 -5 4 -6q-2 0 -11 5q-71 44 -158 86q-20 16 -22 28q-2 11 4.5 23t16.5 13q21 2 35 -12q77 -85 131 -137zM635 436q0 -68 -27 -146t-72 -144.5t-111.5 -111t-136.5 -44.5q-96 0 -164 74t-68 216q0 51 16 110.5t48.5 118.5t75 107.5t102 79t123.5 30.5 q80 0 147 -75.5t67 -214.5zM552 545q0 51 -12.5 86t-34.5 51t-42 22t-43 6q-75 0 -122 -51t-83 -144q-29 -75 -50 -179t-21 -162q0 -168 141 -168q119 0 185 168q35 89 58.5 200.5t23.5 170.5z" />
<glyph unicode="&#xd3;" horiz-adv-x="652" d="M539 912q0 -15 -8 -24t-33 -21q-48 -24 -150 -90q86 90 119 134q20 27 39 26q11 1 22 -6.5t11 -18.5zM635 436q0 -68 -27 -146t-72 -144.5t-111.5 -111t-136.5 -44.5q-96 0 -164 74t-68 216q0 51 16 110.5t48.5 118.5t75 107.5t102 79t123.5 30.5q80 0 147 -75.5 t67 -214.5zM552 545q0 51 -12.5 86t-34.5 51t-42 22t-43 6q-75 0 -122 -51t-83 -144q-29 -75 -50 -179t-21 -162q0 -168 141 -168q119 0 185 168q35 89 58.5 200.5t23.5 170.5z" />
<glyph unicode="&#xd4;" horiz-adv-x="652" d="M569 769q4 -6 0 -6q-6 0 -14 8l-88 94q-3 4 -9 2q-72 -44 -140 -93q-21 -14 -20 -8q0 3 4 7q57 55 149 169q27 13 37 -5q49 -111 81 -168zM635 436q0 -68 -27 -146t-72 -144.5t-111.5 -111t-136.5 -44.5q-96 0 -164 74t-68 216q0 51 16 110.5t48.5 118.5t75 107.5t102 79 t123.5 30.5q80 0 147 -75.5t67 -214.5zM552 545q0 51 -12.5 86t-34.5 51t-42 22t-43 6q-75 0 -122 -51t-83 -144q-29 -75 -50 -179t-21 -162q0 -168 141 -168q119 0 185 168q35 89 58.5 200.5t23.5 170.5z" />
<glyph unicode="&#xd5;" horiz-adv-x="652" d="M618 901q-34 -100 -104 -96q-33 1 -68 28q-36 25 -55 26q-37 3 -53 -42q-1 -7 -7 -10.5t-11.5 -0.5t-5.5 12q13 41 39.5 69t64.5 25q35 -3 67 -27q38 -26 57 -27q36 -1 52 45q1 7 7.5 9.5t11.5 -0.5t5 -11zM635 436q0 -68 -27 -146t-72 -144.5t-111.5 -111t-136.5 -44.5 q-96 0 -164 74t-68 216q0 51 16 110.5t48.5 118.5t75 107.5t102 79t123.5 30.5q80 0 147 -75.5t67 -214.5zM552 545q0 51 -12.5 86t-34.5 51t-42 22t-43 6q-75 0 -122 -51t-83 -144q-29 -75 -50 -179t-21 -162q0 -168 141 -168q119 0 185 168q35 89 58.5 200.5t23.5 170.5z " />
<glyph unicode="&#xd6;" horiz-adv-x="668" d="M586 868q0 -25 -14.5 -49.5t-36.5 -24.5q-32 0 -32 45q0 18 16 40.5t32 22.5q35 0 35 -34zM412 868q0 -25 -15 -49.5t-37 -24.5q-30 0 -30 45q0 18 15.5 40.5t31.5 22.5q35 0 35 -34zM635 436q0 -68 -27 -146t-72 -144.5t-111.5 -111t-136.5 -44.5q-96 0 -164 74t-68 216 q0 51 16 110.5t48.5 118.5t75 107.5t102 79t123.5 30.5q80 0 147 -75.5t67 -214.5zM552 545q0 51 -12.5 86t-34.5 51t-42 22t-43 6q-75 0 -122 -51t-83 -144q-29 -75 -50 -179t-21 -162q0 -168 141 -168q119 0 185 168q35 89 58.5 200.5t23.5 170.5z" />
<glyph unicode="&#xd7;" horiz-adv-x="529" d="M483 68q19 -18 15.5 -36.5t-20 -20t-34.5 14.5q-122 149 -177 196q-24 -22 -69 -70.5t-78 -85.5l-33 -38q-9 -10 -20.5 -13.5t-19.5 0.5t-12.5 11t-1.5 18.5t14 22.5q138 123 190 186q-19 24 -66 70.5t-85 80.5l-38 35q-25 25 -11 47q13 19 37 4q6 -4 12 -10 q133 -150 182 -195q24 20 67.5 69.5t75.5 88.5l32 39q26 29 46 14q18 -14 6 -41q-4 -8 -12 -16q-142 -130 -189 -187q22 -25 69 -71t83 -79z" />
<glyph unicode="&#xd8;" horiz-adv-x="648" d="M635 436q0 -68 -27 -146t-72 -144.5t-111.5 -111t-136.5 -44.5q-78 0 -135 46q-7 6 -11 -2l-40 -57q-6 -6 -11.5 -1t-2.5 11l44 61q2 5 -4 11q-72 74 -72 221q0 51 16 110.5t48.5 118.5t75 107.5t102 79t123.5 30.5t116 -45q3 -3 7 1l38 56q8 10 15 1q4 -5 0 -10l-39 -61 q-3 -4 1 -8q76 -83 76 -224zM524 650q4 6 0 10q-33 50 -104 50q-75 0 -122 -51t-83 -144q-29 -75 -50 -179t-21 -162q0 -43 10 -78q2 -5 3 -5t5 5zM552 545q0 47 -12 83l-2 6q-2 1 -6 -5l-364 -555q-4 -6 -1 -9q35 -59 118 -59q119 0 185 168q35 89 58.5 200.5t23.5 170.5z " />
<glyph unicode="&#xd9;" horiz-adv-x="667" d="M556 789q8 -5 4 -6q-2 0 -11 5q-71 44 -158 86q-20 16 -22 28q-2 11 4.5 23t16.5 13q21 2 35 -12q77 -85 131 -137zM739 705q3 0 4 -4t-1 -8t-6 -5q-36 2 -53.5 -6t-25.5 -39l-126 -466q-25 -96 -83.5 -140t-171.5 -44q-54 0 -101.5 16t-80.5 53t-33 88q0 19 55 248 l71 277v5t-3 6t-8 3h-70q-2 0 -2.5 4t1.5 8t5 4h253q6 0 3 -9q-2 -7 -7 -7h-71q-6 0 -7 -6l-77 -293q-59 -226 -59 -265q0 -57 39.5 -89t95.5 -32q95 0 152.5 43.5t83.5 137.5l105 384q20 77 20 93q0 15 -12 21t-52 6h-20q-5 0 -4.5 8.5t9.5 7.5q20 0 56.5 -0.5t65.5 -0.5 t55 1z" />
<glyph unicode="&#xda;" horiz-adv-x="667" d="M544 911q0 -15 -8 -24t-33 -21q-48 -24 -150 -90q86 90 119 134q20 27 39 26q11 1 22 -6.5t11 -18.5zM739 705q3 0 4 -4t-1 -8t-6 -5q-36 2 -53.5 -6t-25.5 -39l-126 -466q-25 -96 -83.5 -140t-171.5 -44q-54 0 -101.5 16t-80.5 53t-33 88q0 19 55 248l71 277v5t-3 6 t-8 3h-70q-2 0 -2.5 4t1.5 8t5 4h253q6 0 3 -9q-2 -7 -7 -7h-71q-6 0 -7 -6l-77 -293q-59 -226 -59 -265q0 -57 39.5 -89t95.5 -32q95 0 152.5 43.5t83.5 137.5l105 384q20 77 20 93q0 15 -12 21t-52 6h-20q-5 0 -4.5 8.5t9.5 7.5q20 0 56.5 -0.5t65.5 -0.5t55 1z" />
<glyph unicode="&#xdb;" horiz-adv-x="667" d="M580 769q4 -6 0 -6q-6 0 -14 8l-88 94q-3 4 -9 2q-72 -44 -140 -93q-21 -14 -20 -8q0 3 4 7q57 55 149 169q27 13 37 -5q49 -111 81 -168zM739 705q3 0 4 -4t-1 -8t-6 -5q-36 2 -53.5 -6t-25.5 -39l-126 -466q-25 -96 -83.5 -140t-171.5 -44q-54 0 -101.5 16t-80.5 53 t-33 88q0 19 55 248l71 277v5t-3 6t-8 3h-70q-2 0 -2.5 4t1.5 8t5 4h253q6 0 3 -9q-2 -7 -7 -7h-71q-6 0 -7 -6l-77 -293q-59 -226 -59 -265q0 -57 39.5 -89t95.5 -32q95 0 152.5 43.5t83.5 137.5l105 384q20 77 20 93q0 15 -12 21t-52 6h-20q-5 0 -4.5 8.5t9.5 7.5 q20 0 56.5 -0.5t65.5 -0.5t55 1z" />
<glyph unicode="&#xdc;" horiz-adv-x="667" d="M585 874q0 -25 -14.5 -49.5t-36.5 -24.5q-32 0 -32 45q0 18 16 40.5t32 22.5q35 0 35 -34zM411 874q0 -25 -15 -49.5t-37 -24.5q-30 0 -30 45q0 18 15.5 40.5t31.5 22.5q35 0 35 -34zM739 705q3 0 4 -4t-1 -8t-6 -5q-36 2 -53.5 -6t-25.5 -39l-126 -466 q-25 -96 -83.5 -140t-171.5 -44q-54 0 -101.5 16t-80.5 53t-33 88q0 19 55 248l71 277v5t-3 6t-8 3h-70q-2 0 -2.5 4t1.5 8t5 4h253q6 0 3 -9q-2 -7 -7 -7h-71q-6 0 -7 -6l-77 -293q-59 -226 -59 -265q0 -57 39.5 -89t95.5 -32q95 0 152.5 43.5t83.5 137.5l105 384 q20 77 20 93q0 15 -12 21t-52 6h-20q-5 0 -4.5 8.5t9.5 7.5q20 0 56.5 -0.5t65.5 -0.5t55 1z" />
<glyph unicode="&#xdd;" horiz-adv-x="517" d="M495 917q0 -20 -18 -31q-13 -7 -74 -45t-105 -63q-11 -6 -11 -5t4 5q3 2 4 4q87 87 141 150q15 17 32 17q10 0 18.5 -10t8.5 -22zM569 704q10 -2 3 -11q-4 -5 -7 -5h-8q-29 0 -45 -24l-250 -374l-69 -270q-2 -4 3 -4h76q6 0 1 -11q-2 -5 -5 -5q-176 2 -242 -1 q-3 0 -4 4.5t0.5 8.5t4.5 4h67q5 0 5 5l73 270q2 6 1 9l-26 382q0 6 -6 6h-64q-6 0 -3 9q2 7 7 7q116 1 232 0q6 0 1 -11q-2 -5 -5 -5h-69q-7 0 -7 -5l22 -372h2l206 308q30 45 30 57t-58 12h-13q-6 0 -4 9q2 7 8 7q50 -2 143 0z" />
<glyph unicode="&#xde;" horiz-adv-x="504" d="M549 431q0 -74 -41.5 -125t-98 -71.5t-120.5 -20.5h-105q-9 0 -11 -12l-44 -176q1 -10 9 -10h67q3 0 4 -3q2 -10 -4 -13h-3q-122 1 -244 0q-4 0 -4 10q0 9 8 6q21 -1 62 -1q11 0 12 11q30 97 58 206.5t59.5 242.5t50.5 206q0 7 -8 7q-36 1 -73 0q-3 0 -4.5 4t0.5 8t8 4 q127 -2 252 0q6 1 6 -4q1 -9 -7 -12h-3h-68q-8 0 -10 -7l-21 -77q0 -4 3 -8t6 -4h86q93 0 135.5 -44.5t42.5 -116.5zM449 462q0 63 -18.5 88.5t-84.5 25.5h-67q-10 0 -12 -11l-83 -321q-2 -4 0.5 -9t6.5 -5h84q47 0 82.5 23t54.5 59.5t28 74.5t9 75z" />
<glyph unicode="&#xdf;" horiz-adv-x="513" d="M509 618q0 -39 -20 -69t-49 -47.5t-57.5 -31.5t-48.5 -28.5t-20 -31.5q0 -18 18.5 -36.5t46 -35.5t54.5 -36.5t46 -48t19 -61.5q0 -73 -54.5 -134.5t-148.5 -61.5q-59 0 -99.5 37t-37.5 95q1 25 16 47t39 22q20 0 33.5 -15.5t13.5 -36.5q0 -19 -8 -32t-17.5 -17.5 t-17.5 -11.5t-8 -15q0 -24 25 -44t59 -20q52 0 95 35.5t43 93.5q0 30 -19.5 55.5t-47 44.5t-55.5 38t-47.5 46.5t-19.5 59.5q3 24 20 41t40.5 26t51 23.5t50.5 31.5t38 51t15 81q0 42 -25.5 68t-63.5 26q-58 0 -97 -48.5t-56 -116.5l-114 -435q-20 -78 -39.5 -136.5 t-47.5 -119.5t-63.5 -94.5t-75.5 -33.5q-26 0 -42 16.5t-16 43.5q0 20 11.5 35t29.5 15q16 0 26 -11t10 -29q0 -13 -4.5 -25.5t-4.5 -16.5q0 -12 10 -12q25 0 50 36t42 116l107 498q34 159 107 246.5t171 87.5q56 0 96.5 -40.5t40.5 -83.5z" />
<glyph unicode="&#xe0;" horiz-adv-x="507" d="M442 571q8 -5 4 -6q-2 0 -11 5q-71 44 -158 86q-20 16 -22 28q-2 11 4.5 23t16.5 13q21 2 35 -12q77 -85 131 -137zM483 93q-1 -1 -8.5 -17t-15 -27.5t-20 -26t-29.5 -22.5t-37 -8q-18 0 -30.5 7t-19 14.5t-10 22.5t-4 22t-0.5 22h-1q-20 -35 -55.5 -62.5t-72.5 -27.5 q-63 0 -100 49t-37 121q0 103 80 188.5t168 85.5q40 0 64.5 -27.5t30.5 -56.5h1l21 62q3 10 12 10q28 -3 52 0q10 0 7 -10l-99 -318q-10 -32 -10 -52q0 -13 3.5 -19t14.5 -6q15 0 29.5 12t22.5 23t18.5 30.5t11.5 20.5t4.5 0.5t6.5 -4t2 -6.5zM372 329q0 31 -23 60t-62 29 q-41 0 -76 -40.5t-54.5 -97.5t-30.5 -109t-11 -85q0 -80 66 -80q101 0 150 174q8 30 20 67.5t16.5 55t4.5 26.5z" />
<glyph unicode="&#xe1;" horiz-adv-x="507" d="M447 694q0 -15 -8 -24t-33 -21q-48 -24 -150 -90q86 90 119 134q20 27 39 26q11 1 22 -6.5t11 -18.5zM483 93q-1 -1 -8.5 -17t-15 -27.5t-20 -26t-29.5 -22.5t-37 -8q-18 0 -30.5 7t-19 14.5t-10 22.5t-4 22t-0.5 22h-1q-20 -35 -55.5 -62.5t-72.5 -27.5q-63 0 -100 49 t-37 121q0 103 80 188.5t168 85.5q40 0 64.5 -27.5t30.5 -56.5h1l21 62q3 10 12 10q28 -3 52 0q10 0 7 -10l-99 -318q-10 -32 -10 -52q0 -13 3.5 -19t14.5 -6q15 0 29.5 12t22.5 23t18.5 30.5t11.5 20.5t4.5 0.5t6.5 -4t2 -6.5zM372 329q0 31 -23 60t-62 29q-41 0 -76 -40.5 t-54.5 -97.5t-30.5 -109t-11 -85q0 -80 66 -80q101 0 150 174q8 30 20 67.5t16.5 55t4.5 26.5z" />
<glyph unicode="&#xe2;" horiz-adv-x="507" d="M457 545q4 -6 0 -6q-6 0 -14 8l-88 94q-3 4 -9 2q-72 -44 -140 -93q-21 -14 -20 -8q0 3 4 7q57 55 149 169q27 13 37 -5q49 -111 81 -168zM483 93q-1 -1 -8.5 -17t-15 -27.5t-20 -26t-29.5 -22.5t-37 -8q-18 0 -30.5 7t-19 14.5t-10 22.5t-4 22t-0.5 22h-1 q-20 -35 -55.5 -62.5t-72.5 -27.5q-63 0 -100 49t-37 121q0 103 80 188.5t168 85.5q40 0 64.5 -27.5t30.5 -56.5h1l21 62q3 10 12 10q28 -3 52 0q10 0 7 -10l-99 -318q-10 -32 -10 -52q0 -13 3.5 -19t14.5 -6q15 0 29.5 12t22.5 23t18.5 30.5t11.5 20.5t4.5 0.5t6.5 -4 t2 -6.5zM372 329q0 31 -23 60t-62 29q-41 0 -76 -40.5t-54.5 -97.5t-30.5 -109t-11 -85q0 -80 66 -80q101 0 150 174q8 30 20 67.5t16.5 55t4.5 26.5z" />
<glyph unicode="&#xe3;" horiz-adv-x="507" d="M495 670q-34 -100 -104 -96q-33 1 -68 28q-36 25 -55 26q-37 3 -53 -42q-1 -7 -7 -10.5t-11.5 -0.5t-5.5 12q13 41 39.5 69t64.5 25q35 -3 67 -27q38 -26 57 -27q36 -1 52 45q1 7 7.5 9.5t11.5 -0.5t5 -11zM483 93q-1 -1 -8.5 -17t-15 -27.5t-20 -26t-29.5 -22.5t-37 -8 q-18 0 -30.5 7t-19 14.5t-10 22.5t-4 22t-0.5 22h-1q-20 -35 -55.5 -62.5t-72.5 -27.5q-63 0 -100 49t-37 121q0 103 80 188.5t168 85.5q40 0 64.5 -27.5t30.5 -56.5h1l21 62q3 10 12 10q28 -3 52 0q10 0 7 -10l-99 -318q-10 -32 -10 -52q0 -13 3.5 -19t14.5 -6 q15 0 29.5 12t22.5 23t18.5 30.5t11.5 20.5t4.5 0.5t6.5 -4t2 -6.5zM372 329q0 31 -23 60t-62 29q-41 0 -76 -40.5t-54.5 -97.5t-30.5 -109t-11 -85q0 -80 66 -80q101 0 150 174q8 30 20 67.5t16.5 55t4.5 26.5z" />
<glyph unicode="&#xe4;" horiz-adv-x="507" d="M470 646q0 -25 -14.5 -49.5t-36.5 -24.5q-32 0 -32 45q0 18 16 40.5t32 22.5q35 0 35 -34zM296 646q0 -25 -15 -49.5t-37 -24.5q-30 0 -30 45q0 18 15.5 40.5t31.5 22.5q35 0 35 -34zM483 93q-1 -1 -8.5 -17t-15 -27.5t-20 -26t-29.5 -22.5t-37 -8q-18 0 -30.5 7 t-19 14.5t-10 22.5t-4 22t-0.5 22h-1q-20 -35 -55.5 -62.5t-72.5 -27.5q-63 0 -100 49t-37 121q0 103 80 188.5t168 85.5q40 0 64.5 -27.5t30.5 -56.5h1l21 62q3 10 12 10q28 -3 52 0q10 0 7 -10l-99 -318q-10 -32 -10 -52q0 -13 3.5 -19t14.5 -6q15 0 29.5 12t22.5 23 t18.5 30.5t11.5 20.5t4.5 0.5t6.5 -4t2 -6.5zM372 329q0 31 -23 60t-62 29q-41 0 -76 -40.5t-54.5 -97.5t-30.5 -109t-11 -85q0 -80 66 -80q101 0 150 174q8 30 20 67.5t16.5 55t4.5 26.5z" />
<glyph unicode="&#xe5;" horiz-adv-x="507" d="M447 628q0 -39 -27 -68t-63 -29t-62.5 29t-26.5 68t26.5 68t62.5 29t63 -29t27 -68zM483 93q-1 -1 -8.5 -17t-15 -27.5t-20 -26t-29.5 -22.5t-37 -8q-18 0 -30.5 7t-19 14.5t-10 22.5t-4 22t-0.5 22h-1q-20 -35 -55.5 -62.5t-72.5 -27.5q-63 0 -100 49t-37 121 q0 103 80 188.5t168 85.5q40 0 64.5 -27.5t30.5 -56.5h1l21 62q3 10 12 10q28 -3 52 0q10 0 7 -10l-99 -318q-10 -32 -10 -52q0 -13 3.5 -19t14.5 -6q15 0 29.5 12t22.5 23t18.5 30.5t11.5 20.5t4.5 0.5t6.5 -4t2 -6.5zM426 628q0 31 -20 52.5t-47 21.5q-28 0 -48 -21.5 t-20 -52.5t20 -52.5t48 -21.5q27 0 47 21.5t20 52.5zM372 329q0 31 -23 60t-62 29q-41 0 -76 -40.5t-54.5 -97.5t-30.5 -109t-11 -85q0 -80 66 -80q101 0 150 174q8 30 20 67.5t16.5 55t4.5 26.5z" />
<glyph unicode="&#xe6;" horiz-adv-x="606" d="M595 339q0 -51 -41 -89.5t-109 -38.5q-36 0 -67 11q-9 1 -11 -7q-28 -115 -28 -132q0 -32 19 -51.5t50 -19.5q48 0 83.5 31.5t52.5 78.5q2 2 5 2t4.5 -3t0.5 -7q-13 -50 -58.5 -88t-108.5 -38q-43 0 -80.5 24.5t-39.5 76.5q0 4 -2 0q-21 -40 -54 -70.5t-66 -30.5 q-51 0 -82.5 52t-31.5 111q0 108 75.5 194.5t145.5 86.5t82 -75q0 -4 2 -3l19 66q6 11 36.5 11.5t34.5 -11.5l-12 -37h2q29 49 88 49q40 0 65.5 -25t25.5 -68zM533 371q0 45 -36 45q-12 0 -23.5 -3.5t-20.5 -11.5t-16.5 -15.5t-15 -21t-12 -22.5t-10.5 -25t-8.5 -23.5 t-7.5 -24t-6 -20.5q-3 -7 8 -12q28 -10 47 -10q52 0 76.5 41t24.5 103zM326 327q0 89 -71 89q-35 0 -66.5 -43.5t-50.5 -102.5t-30 -112.5t-11 -81.5q0 -72 54 -72q41 0 75 49t58 125q42 131 42 149z" />
<glyph unicode="&#xe7;" horiz-adv-x="408" d="M384 362q0 -24 -11.5 -37.5t-30.5 -13.5t-30 12t-11 35q0 16 5 29.5t5 14.5q0 16 -32 16q-45 0 -80 -39t-52.5 -95.5t-25.5 -105t-8 -82.5q0 -87 70 -90q63 -3 111 53.5t46 91.5q-2 13 8 14q9 -3 11 -14q0 -16 -11.5 -42t-32 -54t-58 -47t-81.5 -18l-40 -63l2 -2 q16 8 47 8q26 0 45.5 -18.5t19.5 -48.5q0 -81 -111 -81q-56 0 -93 22q-5 3 2 10q5 4 12 3q33 -10 65 -10q25 0 44.5 12.5t19.5 41.5q0 18 -12.5 28.5t-31.5 10.5q-18 0 -36 -6l-5 10q44 73 52 86q-48 11 -84.5 51.5t-36.5 115.5q0 101 77.5 187.5t170.5 86.5q45 0 73 -21 t28 -51z" />
<glyph unicode="&#xe8;" horiz-adv-x="407" d="M399 571q8 -5 4 -6q-2 0 -11 5q-71 44 -158 86q-20 16 -22 28q-2 11 4.5 23t16.5 13q21 2 35 -12q77 -85 131 -137zM383 347q0 -57 -55.5 -95.5t-135.5 -38.5q-17 0 -61 12q-3 2 -5.5 1t-3.5 -2.5t-1 -2.5q-14 -74 -14 -98q0 -117 86 -117q53 0 94.5 44.5t39.5 67.5 q3 12 8 11q7 -1 5 -12q0 -4 -2 -7q-2 -31 -47 -75.5t-111 -44.5q-21 0 -44 9t-46.5 27.5t-39 53t-15.5 80.5q0 111 78.5 192.5t169.5 81.5q40 0 70 -21.5t30 -65.5zM322 357q0 27 -15 44t-40 17q-29 0 -52.5 -15.5t-40 -44t-26.5 -53t-20 -57.5q-2 -5 4 -7q36 -12 60 -12 q66 0 98 43t32 85z" />
<glyph unicode="&#xe9;" horiz-adv-x="407" d="M386 695q0 -15 -8 -24t-33 -21q-48 -24 -150 -90q86 90 119 134q20 27 39 26q11 1 22 -6.5t11 -18.5zM383 347q0 -57 -55.5 -95.5t-135.5 -38.5q-17 0 -61 12q-3 2 -5.5 1t-3.5 -2.5t-1 -2.5q-14 -74 -14 -98q0 -117 86 -117q53 0 94.5 44.5t39.5 67.5q3 12 8 11 q7 -1 5 -12q0 -4 -2 -7q-2 -31 -47 -75.5t-111 -44.5q-21 0 -44 9t-46.5 27.5t-39 53t-15.5 80.5q0 111 78.5 192.5t169.5 81.5q40 0 70 -21.5t30 -65.5zM322 357q0 27 -15 44t-40 17q-29 0 -52.5 -15.5t-40 -44t-26.5 -53t-20 -57.5q-2 -5 4 -7q36 -12 60 -12q66 0 98 43 t32 85z" />
<glyph unicode="&#xea;" horiz-adv-x="407" d="M405 545q4 -6 0 -6q-6 0 -14 8l-88 94q-3 4 -9 2q-72 -44 -140 -93q-21 -14 -20 -8q0 3 4 7q57 55 149 169q27 13 37 -5q49 -111 81 -168zM383 347q0 -57 -55.5 -95.5t-135.5 -38.5q-17 0 -61 12q-3 2 -5.5 1t-3.5 -2.5t-1 -2.5q-14 -74 -14 -98q0 -117 86 -117 q53 0 94.5 44.5t39.5 67.5q3 12 8 11q7 -1 5 -12q0 -4 -2 -7q-2 -31 -47 -75.5t-111 -44.5q-21 0 -44 9t-46.5 27.5t-39 53t-15.5 80.5q0 111 78.5 192.5t169.5 81.5q40 0 70 -21.5t30 -65.5zM322 357q0 27 -15 44t-40 17q-29 0 -52.5 -15.5t-40 -44t-26.5 -53t-20 -57.5 q-2 -5 4 -7q36 -12 60 -12q66 0 98 43t32 85z" />
<glyph unicode="&#xeb;" horiz-adv-x="407" d="M416 646q0 -25 -14.5 -49.5t-36.5 -24.5q-32 0 -32 45q0 18 16 40.5t32 22.5q35 0 35 -34zM242 646q0 -25 -15 -49.5t-37 -24.5q-30 0 -30 45q0 18 15.5 40.5t31.5 22.5q35 0 35 -34zM383 347q0 -57 -55.5 -95.5t-135.5 -38.5q-17 0 -61 12q-3 2 -5.5 1t-3.5 -2.5 t-1 -2.5q-14 -74 -14 -98q0 -117 86 -117q53 0 94.5 44.5t39.5 67.5q3 12 8 11q7 -1 5 -12q0 -4 -2 -7q-2 -31 -47 -75.5t-111 -44.5q-21 0 -44 9t-46.5 27.5t-39 53t-15.5 80.5q0 111 78.5 192.5t169.5 81.5q40 0 70 -21.5t30 -65.5zM322 357q0 27 -15 44t-40 17 q-29 0 -52.5 -15.5t-40 -44t-26.5 -53t-20 -57.5q-2 -5 4 -7q36 -12 60 -12q66 0 98 43t32 85z" />
<glyph unicode="&#xec;" horiz-adv-x="265" d="M296 551q6 -8 4 -7q-2 0 -11 8q-56 46 -144 106q-18 18 -18 31q0 11 8.5 20.5t18.5 9.5q22 0 32 -14q44 -65 110 -154zM237 93q-9 -17 -25 -37t-48 -42.5t-65 -22.5q-26 0 -44.5 16.5t-18.5 50.5q0 22 11 60l79 273h-60l3 16h25q70 0 118 22l-96 -326q-14 -49 -14 -62 q0 -10 6 -18t16 -8q49 0 102 86z" />
<glyph unicode="&#xed;" horiz-adv-x="299" d="M315 688q0 -18 -20 -31q-15 -9 -74 -46.5t-103 -61.5q-11 -6 -11 -5t4 5q3 2 4 4q87 87 141 150q15 17 32 17q10 0 18.5 -10t8.5 -22zM257 93q-9 -17 -25 -37t-48 -42.5t-65 -22.5q-26 0 -44.5 16.5t-18.5 50.5q0 22 11 60l79 273h-60l3 16h25q70 0 118 22l-96 -326 q-14 -49 -14 -62q0 -10 6 -18t16 -8q49 0 102 86z" />
<glyph unicode="&#xee;" horiz-adv-x="273" d="M327 545q4 -6 0 -6q-6 0 -14 8l-88 94q-3 4 -9 2q-72 -44 -140 -93q-21 -14 -20 -8q0 3 4 7q57 55 149 169q27 13 37 -5q49 -111 81 -168zM247 93q-9 -17 -25 -37t-48 -42.5t-65 -22.5q-26 0 -44.5 16.5t-18.5 50.5q0 22 11 60l79 273h-60l3 16h25q70 0 118 22l-96 -326 q-14 -49 -14 -62q0 -10 6 -18t16 -8q49 0 102 86z" />
<glyph unicode="&#xef;" horiz-adv-x="290" d="M342 646q0 -25 -14.5 -49.5t-36.5 -24.5q-32 0 -32 45q0 18 16 40.5t32 22.5q35 0 35 -34zM168 646q0 -25 -15 -49.5t-37 -24.5q-30 0 -30 45q0 18 15.5 40.5t31.5 22.5q35 0 35 -34zM257 93q-9 -17 -25 -37t-48 -42.5t-65 -22.5q-26 0 -44.5 16.5t-18.5 50.5q0 22 11 60 l79 273h-60l3 16h25q70 0 118 22l-96 -326q-14 -49 -14 -62q0 -10 6 -18t16 -8q49 0 102 86z" />
<glyph unicode="&#xf0;" horiz-adv-x="421" d="M404 338q0 -157 -68.5 -252.5t-162.5 -95.5q-73 0 -111 49t-38 126q0 63 30.5 124.5t87 103t122.5 41.5q43 0 72 -34h2q-1 57 -19 114t-40 93q-2 2 -6 0q-55 -27 -92 -49q-6 -2 -10.5 6t2.5 12q16 7 92 49q3 3 2 6q-20 34 -75 82q-5 5 -0.5 9.5t11.5 2.5q33 -19 90 -80 q3 -3 7 -1q11 6 40.5 23t46.5 27q6 2 10.5 -5t-1.5 -13q-74 -41 -80 -45q-6 -3 -3 -6q16 -24 21.5 -32t22 -40.5t24.5 -58t15.5 -68.5t7.5 -88zM338 338q0 37 -20.5 58.5t-59.5 21.5q-61 0 -99 -69q-16 -30 -42.5 -126.5t-26.5 -136.5q0 -37 21 -58.5t60 -21.5q61 0 92 57 q20 37 47.5 135t27.5 140z" />
<glyph unicode="&#xf1;" horiz-adv-x="516" d="M476 672q-34 -100 -104 -96q-33 1 -68 28q-36 25 -55 26q-37 3 -53 -42q-1 -7 -7 -10.5t-11.5 -0.5t-5.5 12q13 41 39.5 69t64.5 25q35 -3 67 -27q38 -26 57 -27q36 -1 52 45q1 7 7.5 9.5t11.5 -0.5t5 -11zM488 96q-60 -102 -126 -102q-60 0 -60 74q0 34 44 165t44 150 q0 33 -36 33q-41 0 -105 -59t-88 -151l-51 -197q-2 -6 -12 -9q-26 -5 -60 0q-6 1 -6 7l98 362q4 15 -5 28.5t-22 13.5q-39 0 -68 -78q-4 -11 -9 -6q-3 3 0 11q35 95 94 93q34 -1 51 -22t18 -50q1 -33 -5 -65h1q33 59 83 98.5t101 39.5q42 0 64.5 -22.5t22.5 -58.5 q0 -24 -44 -158t-44 -144q0 -31 22 -31q11 0 22.5 6.5t22.5 19t18 21.5t16 23t10 15q3 7 8 5q9 -3 1 -12z" />
<glyph unicode="&#xf2;" horiz-adv-x="438" d="M412 571q8 -5 4 -6q-2 0 -11 5q-71 44 -158 86q-20 16 -22 28q-2 11 4.5 23t16.5 13q21 2 35 -12q77 -85 131 -137zM404 273q0 -117 -72 -200t-159 -83q-73 0 -111 49t-38 126q0 63 30.5 124.5t87 103t122.5 41.5q52 0 96 -45t44 -116zM338 338q0 37 -20.5 58.5 t-59.5 21.5q-61 0 -99 -69q-15 -29 -42 -126t-27 -130q0 -38 21.5 -62.5t59.5 -24.5q55 0 94 60q19 36 46 133.5t27 138.5z" />
<glyph unicode="&#xf3;" horiz-adv-x="438" d="M391 694q0 -15 -8 -24t-33 -21q-48 -24 -150 -90q86 90 119 134q20 27 39 26q11 1 22 -6.5t11 -18.5zM404 273q0 -117 -72 -200t-159 -83q-73 0 -111 49t-38 126q0 63 30.5 124.5t87 103t122.5 41.5q52 0 96 -45t44 -116zM338 338q0 37 -20.5 58.5t-59.5 21.5 q-61 0 -99 -69q-15 -29 -42 -126t-27 -130q0 -38 21.5 -62.5t59.5 -24.5q55 0 94 60q19 36 46 133.5t27 138.5z" />
<glyph unicode="&#xf4;" horiz-adv-x="438" d="M432 545q4 -6 0 -6q-6 0 -14 8l-88 94q-3 4 -9 2q-72 -44 -140 -93q-21 -14 -20 -8q0 3 4 7q57 55 149 169q27 13 37 -5q49 -111 81 -168zM404 273q0 -117 -72 -200t-159 -83q-73 0 -111 49t-38 126q0 63 30.5 124.5t87 103t122.5 41.5q52 0 96 -45t44 -116zM338 338 q0 37 -20.5 58.5t-59.5 21.5q-61 0 -99 -69q-15 -29 -42 -126t-27 -130q0 -38 21.5 -62.5t59.5 -24.5q55 0 94 60q19 36 46 133.5t27 138.5z" />
<glyph unicode="&#xf5;" horiz-adv-x="438" d="M453 672q-34 -100 -104 -96q-33 1 -68 28q-36 25 -55 26q-37 3 -53 -42q-1 -7 -7 -10.5t-11.5 -0.5t-5.5 12q13 41 39.5 69t64.5 25q35 -3 67 -27q38 -26 57 -27q36 -1 52 45q1 7 7.5 9.5t11.5 -0.5t5 -11zM404 273q0 -117 -72 -200t-159 -83q-73 0 -111 49t-38 126 q0 63 30.5 124.5t87 103t122.5 41.5q52 0 96 -45t44 -116zM338 338q0 37 -20.5 58.5t-59.5 21.5q-61 0 -99 -69q-15 -29 -42 -126t-27 -130q0 -38 21.5 -62.5t59.5 -24.5q55 0 94 60q19 36 46 133.5t27 138.5z" />
<glyph unicode="&#xf6;" horiz-adv-x="438" d="M429 648q0 -25 -14.5 -49.5t-36.5 -24.5q-32 0 -32 45q0 18 16 40.5t32 22.5q35 0 35 -34zM255 648q0 -25 -15 -49.5t-37 -24.5q-30 0 -30 45q0 18 15.5 40.5t31.5 22.5q35 0 35 -34zM404 273q0 -117 -72 -200t-159 -83q-73 0 -111 49t-38 126q0 63 30.5 124.5t87 103 t122.5 41.5q52 0 96 -45t44 -116zM338 338q0 37 -20.5 58.5t-59.5 21.5q-61 0 -99 -69q-15 -29 -42 -126t-27 -130q0 -38 21.5 -62.5t59.5 -24.5q55 0 94 60q19 36 46 133.5t27 138.5z" />
<glyph unicode="&#xf7;" horiz-adv-x="518" d="M321 460q0 -23 -17 -41.5t-39 -18.5t-38.5 18t-16.5 42q0 25 16.5 42.5t38.5 17.5t39 -18t17 -42zM467 222q-289 18 -422 0q-36 -5 -45 21q-7 22 14 35q13 7 32 5q185 -24 420 -1q31 3 44.5 -13t0.5 -32.5t-44 -14.5zM321 46q0 -23 -17 -41.5t-39 -18.5t-38.5 18 t-16.5 42q0 25 16.5 42.5t38.5 17.5t39 -18t17 -42z" />
<glyph unicode="&#xf8;" horiz-adv-x="428" d="M404 273q0 -117 -72 -200t-159 -83q-44 0 -80 21q-4 4 -10 -4l-26 -35q-8 -7 -13 -0.5t0 12.5l28 36q5 7 -1 10q-47 46 -47 135q0 63 30.5 124.5t87 103t122.5 41.5q39 0 72 -25q2 -2 5 1l32 47q3 4 10 0.5t2 -10.5l-33 -48q-2 -1 3 -6q49 -51 49 -120zM322 382q4 6 0 10 q-23 26 -64 26q-61 0 -99 -69q-16 -30 -42.5 -126.5t-26.5 -136.5q0 -14 3 -25q2 -8 6 -1zM338 338q0 10 -2 24l-2 7q-1 1 -5 -5l-222 -323q-3 -5 0 -8q19 -27 64 -27q55 0 94 60q19 36 46 133.5t27 138.5z" />
<glyph unicode="&#xf9;" horiz-adv-x="500" d="M430 571q8 -5 4 -6q-2 0 -11 5q-71 44 -158 86q-20 16 -22 28q-2 11 4.5 23t16.5 13q21 2 35 -12q77 -85 131 -137zM477 91q-39 -100 -113 -100q-30 0 -47.5 17.5t-17.5 47.5q0 19 17 70q0 8 -4 2q-47 -67 -90.5 -102t-94.5 -35q-39 0 -61 16t-22 60q0 10 7 40.5t7 31.5 l78 226q4 12 -2.5 26t-18.5 14q-38 0 -67 -78q-3 -9 -8.5 -6.5t-1.5 11.5q35 95 94 93q35 -1 54.5 -25t11.5 -52l-78 -266q-10 -36 -10 -41q0 -34 37 -34q42 0 105.5 65t86.5 145l57 192q3 7 16 10q6 1 52 1q12 0 9 -11l-100 -327q-7 -24 -7 -43q0 -8 7 -16t19 -8 q39 0 73 83q3 10 10.5 4.5t1.5 -11.5z" />
<glyph unicode="&#xfa;" horiz-adv-x="500" d="M421 695q0 -15 -8 -24t-33 -21q-48 -24 -150 -90q86 90 119 134q20 27 39 26q11 1 22 -6.5t11 -18.5zM477 91q-39 -100 -113 -100q-30 0 -47.5 17.5t-17.5 47.5q0 19 17 70q0 8 -4 2q-47 -67 -90.5 -102t-94.5 -35q-39 0 -61 16t-22 60q0 10 7 40.5t7 31.5l78 226 q4 12 -2.5 26t-18.5 14q-38 0 -67 -78q-3 -9 -8.5 -6.5t-1.5 11.5q35 95 94 93q35 -1 54.5 -25t11.5 -52l-78 -266q-10 -36 -10 -41q0 -34 37 -34q42 0 105.5 65t86.5 145l57 192q3 7 16 10q6 1 52 1q12 0 9 -11l-100 -327q-7 -24 -7 -43q0 -8 7 -16t19 -8q39 0 73 83 q3 10 10.5 4.5t1.5 -11.5z" />
<glyph unicode="&#xfb;" horiz-adv-x="500" d="M456 545q4 -6 0 -6q-6 0 -14 8l-88 94q-3 4 -9 2q-72 -44 -140 -93q-21 -14 -20 -8q0 3 4 7q57 55 149 169q27 13 37 -5q49 -111 81 -168zM477 91q-39 -100 -113 -100q-30 0 -47.5 17.5t-17.5 47.5q0 19 17 70q0 8 -4 2q-47 -67 -90.5 -102t-94.5 -35q-39 0 -61 16 t-22 60q0 10 7 40.5t7 31.5l78 226q4 12 -2.5 26t-18.5 14q-38 0 -67 -78q-3 -9 -8.5 -6.5t-1.5 11.5q35 95 94 93q35 -1 54.5 -25t11.5 -52l-78 -266q-10 -36 -10 -41q0 -34 37 -34q42 0 105.5 65t86.5 145l57 192q3 7 16 10q6 1 52 1q12 0 9 -11l-100 -327q-7 -24 -7 -43 q0 -8 7 -16t19 -8q39 0 73 83q3 10 10.5 4.5t1.5 -11.5z" />
<glyph unicode="&#xfc;" horiz-adv-x="500" d="M466 646q0 -25 -14.5 -49.5t-36.5 -24.5q-32 0 -32 45q0 18 16 40.5t32 22.5q35 0 35 -34zM292 646q0 -25 -15 -49.5t-37 -24.5q-30 0 -30 45q0 18 15.5 40.5t31.5 22.5q35 0 35 -34zM477 91q-39 -100 -113 -100q-30 0 -47.5 17.5t-17.5 47.5q0 19 17 70q0 8 -4 2 q-47 -67 -90.5 -102t-94.5 -35q-39 0 -61 16t-22 60q0 10 7 40.5t7 31.5l78 226q4 12 -2.5 26t-18.5 14q-38 0 -67 -78q-3 -9 -8.5 -6.5t-1.5 11.5q35 95 94 93q35 -1 54.5 -25t11.5 -52l-78 -266q-10 -36 -10 -41q0 -34 37 -34q42 0 105.5 65t86.5 145l57 192q3 7 16 10 q6 1 52 1q12 0 9 -11l-100 -327q-7 -24 -7 -43q0 -8 7 -16t19 -8q39 0 73 83q3 10 10.5 4.5t1.5 -11.5z" />
<glyph unicode="&#xfd;" horiz-adv-x="434" d="M426 692q0 -20 -18 -31q-13 -7 -74 -45t-105 -63q-11 -6 -11 -5t4 5q3 2 4 4q87 87 141 150q15 17 32 17q10 0 18.5 -10t8.5 -22zM443 412l-94 -318q-44 -147 -90 -233q-66 -124 -167 -138q-69 -10 -114 33q-35 34 -25 76q7 28 38 25q19 -2 29.5 -13.5t6.5 -29.5 q-1 -12 -9.5 -21.5t-15 -14.5t-4.5 -9q6 -11 22.5 -20.5t40 -13t54.5 14t59 57.5q19 26 35.5 74.5t38 124t38.5 123.5q0 8 -4 2q-47 -67 -90.5 -102t-94.5 -35q-39 0 -61 16t-22 60q0 10 7 40.5t7 31.5l77 218q4 12 -2.5 26t-18.5 14q-38 0 -67 -78q-3 -9 -8.5 -6.5 t-1.5 11.5q35 95 94 93q35 -1 54.5 -25t11.5 -52l-77 -258q-10 -36 -10 -41q0 -34 37 -34q42 0 105.5 65t86.5 145l57 192q3 7 16 10q31 5 52 -1q9 -3 9 -5q1 -2 0 -4z" />
<glyph unicode="&#xfe;" horiz-adv-x="480" d="M443 263q0 -101 -74 -187.5t-166 -86.5q-43 0 -71.5 21.5t-35.5 57.5q-2 4 -2 0l-83 -318q-2 -4 2 -4l50 1q2 0 3 -3q2 -11 -6 -13q-90 2 -178 0q-5 -1 -6 5q1 10 10 11h41q6 0 9 6q42 142 82 294.5t90 353.5t72 288q0 7 -8 7h-16.5h-19.5h-17q-4 -1 -4 3q0 10 8 12h41 q57 0 93 20q2 1 3.5 2t3 -0.5t0.5 -5.5l-96 -372h2q50 78 130 78q58 0 100.5 -47.5t42.5 -122.5zM371 316q0 50 -20.5 75.5t-55.5 25.5q-56 0 -94 -45.5t-58 -117.5l-31 -114q-7 -26 -7 -45q0 -42 26.5 -66t62.5 -24q41 0 76.5 35.5t56.5 86.5t32.5 101.5t11.5 87.5z" />
<glyph unicode="&#xff;" horiz-adv-x="413" d="M429 646q0 -25 -14.5 -49.5t-36.5 -24.5q-32 0 -32 45q0 18 16 40.5t32 22.5q35 0 35 -34zM255 646q0 -25 -15 -49.5t-37 -24.5q-30 0 -30 45q0 18 15.5 40.5t31.5 22.5q35 0 35 -34zM443 412l-94 -318q-44 -147 -90 -233q-66 -124 -167 -138q-69 -10 -114 33 q-35 34 -25 76q7 28 38 25q19 -2 29.5 -13.5t6.5 -29.5q-1 -12 -9.5 -21.5t-15 -14.5t-4.5 -9q6 -11 22.5 -20.5t40 -13t54.5 14t59 57.5q19 26 35.5 74.5t38 124t38.5 123.5q0 8 -4 2q-47 -67 -90.5 -102t-94.5 -35q-39 0 -61 16t-22 60q0 10 7 40.5t7 31.5l77 218 q4 12 -2.5 26t-18.5 14q-38 0 -67 -78q-3 -9 -8.5 -6.5t-1.5 11.5q35 95 94 93q35 -1 54.5 -25t11.5 -52l-77 -258q-10 -36 -10 -41q0 -34 37 -34q42 0 105.5 65t86.5 145l57 192q3 7 16 10q31 5 52 -1q9 -3 9 -5q1 -2 0 -4z" />
<glyph unicode="&#x152;" horiz-adv-x="864" d="M924 697q-17 -96 -28 -179q0 -9 -10 -8q-7 1 -6 7q6 33 6 58q0 47 -20 73.5t-45 33t-61 6.5h-119q-4 0 -6 -5l-74 -290q0 -4 4 -4h74q27 0 39 1t27 6.5t22 17.5t14.5 32.5t14.5 53.5q1 4 6 5t9 -1t4 -5q-40 -149 -61 -264q-2 -9 -13 -6q-7 1 -6 6q16 68 16 89 q0 49 -48 49h-98l-3 1q-3 1 -6 0.5t-4 -4.5l-91 -348q4 -6 7 -6h108q102 0 164 44t81 156q2 7 7 8.5t8 -2t2 -8.5q-15 -74 -43 -208q-1 -6 -7 -6q-325 2 -450 -2q-22 -1 -54 -1q-22 0 -46.5 4.5t-59.5 22t-61.5 45.5t-46 81.5t-19.5 123.5q0 36 11.5 86.5t40.5 112.5 t70.5 114t110 87.5t150.5 35.5q30 0 86 -2q158 -6 397 -4q7 0 7 -7zM542 680l-2 6q-36 8 -90 8q-62 0 -112.5 -31t-82 -81.5t-54.5 -108t-34.5 -118.5t-16.5 -103.5t-5 -72.5q0 -167 145 -167q46 0 78 5q3 0 4 4z" />
<glyph unicode="&#x153;" horiz-adv-x="608" d="M595 339q0 -51 -41 -89.5t-109 -38.5q-33 0 -63 10q-5 4 -7 -3q-20 -68 -20 -133q0 -81 58 -81q52 0 89.5 40t49.5 73q5 6 10 0.5t2 -9.5q-14 -37 -56 -78.5t-102 -41.5q-30 0 -55.5 19t-41.5 48q-4 8 -11 1q-58 -69 -132 -69q-63 0 -99 50t-36 126q0 97 69 183t158 86 q71 0 114 -74q3 -5 7 -2q59 76 125 76q40 0 65.5 -25t25.5 -68zM533 371q0 45 -36 45q-23 0 -42.5 -16t-33.5 -47t-22 -53t-17 -56q-3 -6 4 -8q27 -9 46 -9q52 0 76.5 41t24.5 103zM320 348q0 68 -63 68q-32 0 -52.5 -18t-38.5 -51q-16 -30 -42.5 -126.5t-26.5 -136.5 q0 -34 19.5 -57t49.5 -23q62 0 96 82q15 38 36.5 127t21.5 135z" />
<glyph unicode="&#x178;" horiz-adv-x="479" d="M526 873q0 -25 -14.5 -49.5t-36.5 -24.5q-32 0 -32 45q0 18 16 40.5t32 22.5q35 0 35 -34zM352 873q0 -25 -15 -49.5t-37 -24.5q-30 0 -30 45q0 18 15.5 40.5t31.5 22.5q35 0 35 -34zM599 704q10 -2 3 -11q-4 -5 -7 -5h-8q-29 0 -45 -24l-250 -374l-69 -270q-2 -4 3 -4 h76q6 0 1 -11q-2 -5 -5 -5q-176 2 -242 -1q-3 0 -4 4.5t0.5 8.5t4.5 4h67q5 0 5 5l73 270q2 6 1 9l-26 382q0 6 -6 6h-64q-6 0 -3 9q2 7 7 7q77 -2 232 0q6 0 1 -11q-2 -5 -5 -5h-69q-7 0 -7 -5l22 -372h2l206 308q30 45 30 57t-58 12h-13q-6 0 -4 9q2 7 8 7q50 -2 143 0z " />
<glyph unicode="&#x2c6;" horiz-adv-x="274" d="M303 517q4 -6 0 -6q-6 0 -14 8l-88 94q-3 4 -9 2q-72 -44 -140 -93q-21 -14 -20 -8q0 3 4 7q57 55 149 169q27 13 37 -5q49 -111 81 -168z" />
<glyph unicode="&#x2dc;" horiz-adv-x="275" d="M306 622q-34 -100 -104 -96q-33 1 -68 28q-36 25 -55 26q-37 3 -53 -42q-1 -7 -7 -10.5t-11.5 -0.5t-5.5 12q13 41 39.5 69t64.5 25q35 -3 67 -27q38 -26 57 -27q36 -1 52 45q1 7 7.5 9.5t11.5 -0.5t5 -11z" />
<glyph unicode="&#x2000;" horiz-adv-x="474" />
<glyph unicode="&#x2001;" horiz-adv-x="949" />
<glyph unicode="&#x2002;" horiz-adv-x="474" />
<glyph unicode="&#x2003;" horiz-adv-x="949" />
<glyph unicode="&#x2004;" horiz-adv-x="316" />
<glyph unicode="&#x2005;" horiz-adv-x="237" />
<glyph unicode="&#x2006;" horiz-adv-x="158" />
<glyph unicode="&#x2007;" horiz-adv-x="158" />
<glyph unicode="&#x2008;" horiz-adv-x="118" />
<glyph unicode="&#x2009;" horiz-adv-x="189" />
<glyph unicode="&#x200a;" horiz-adv-x="52" />
<glyph unicode="&#x2010;" horiz-adv-x="320" d="M263 206q-96 12 -193 0q-36 -5 -45 22q-7 22 14 34q13 8 32 5q66 -9 101.5 -9.5t89.5 8.5q37 7 47 -18q10 -22 -11 -36q-13 -9 -35 -6z" />
<glyph unicode="&#x2011;" horiz-adv-x="320" d="M263 206q-96 12 -193 0q-36 -5 -45 22q-7 22 14 34q13 8 32 5q66 -9 101.5 -9.5t89.5 8.5q37 7 47 -18q10 -22 -11 -36q-13 -9 -35 -6z" />
<glyph unicode="&#x2012;" horiz-adv-x="320" d="M263 206q-96 12 -193 0q-36 -5 -45 22q-7 22 14 34q13 8 32 5q66 -9 101.5 -9.5t89.5 8.5q37 7 47 -18q10 -22 -11 -36q-13 -9 -35 -6z" />
<glyph unicode="&#x2013;" horiz-adv-x="495" d="M447 198q-276 17 -403 0q-36 -5 -45 21q-7 22 14 35q13 7 32 5q177 -23 401 -1q31 3 44.5 -13t0.5 -32.5t-44 -14.5z" />
<glyph unicode="&#x2014;" horiz-adv-x="963" d="M916 199q-491 9 -871 0q-29 0 -41 16t0 31.5t42 13.5q274 -15 422.5 -14.5t446.5 13.5q31 1 44 -14t0.5 -30.5t-43.5 -15.5z" />
<glyph unicode="&#x2018;" horiz-adv-x="243" d="M270 710q-1 -1 -15 -11t-25.5 -19t-28.5 -25t-28 -31.5t-19.5 -36.5t-8.5 -41q0 -24 5 -24q1 0 13 6t29 6q22 0 36 -14.5t14 -40.5q0 -25 -15 -42t-37 -17q-34 0 -53.5 25.5t-19.5 63.5q0 30 10 58t23 48t32.5 40t33 30t30.5 22t18 13q5 2 7 -3t-1 -7z" />
<glyph unicode="&#x2019;" horiz-adv-x="257" d="M285 631q0 -30 -10 -58t-23.5 -48t-32.5 -40t-33 -30.5t-30 -21.5t-18 -13q-4 -2 -7 2.5t1 7.5q1 1 15 11t25.5 19t28.5 25t28 31.5t19.5 36.5t8.5 41q0 24 -5 24q-2 0 -14 -6t-28 -6q-23 0 -37 14.5t-14 40.5q0 25 15 42t38 17q34 0 53.5 -25.5t19.5 -63.5z" />
<glyph unicode="&#x201a;" horiz-adv-x="204" d="M153 19q0 -35 -12.5 -67.5t-33.5 -57t-38 -40t-39 -30.5l-21 -15q-4 -2 -7.5 2t0.5 8q1 1 18 13t32.5 25.5t33.5 33t29 43.5t11 48t-6 24q-2 0 -13.5 -6t-27.5 -6q-23 0 -37 14.5t-14 40.5q0 25 15 42t38 17q33 0 52.5 -25.5t19.5 -63.5z" />
<glyph unicode="&#x201c;" horiz-adv-x="383" d="M426 710q-1 -1 -15 -11t-26 -19t-28.5 -25t-28 -31.5t-20 -36.5t-8.5 -41q0 -24 6 -24q1 0 13 6t29 6q22 0 36 -14.5t14 -40.5q0 -25 -15 -42t-37 -17q-34 0 -53.5 25.5t-19.5 63.5q0 30 10 58t23 48t32.5 40t33 30t30.5 22t18 13q3 2 6.5 -2t-0.5 -8zM266 710l-18 -14 q-19 -13 -34 -26t-33.5 -32.5t-29 -43.5t-10.5 -48t6 -24q1 0 12.5 6t28.5 6q23 0 37 -14.5t14 -40.5q0 -25 -15 -42t-38 -17q-34 0 -53.5 25.5t-19.5 63.5q0 30 10 58t23.5 48t32.5 40t33 30.5t30 21.5t18 13q4 2 6.5 -2.5t-0.5 -7.5z" />
<glyph unicode="&#x201d;" horiz-adv-x="391" d="M434 631q0 -30 -9.5 -58t-23 -48t-33 -40t-33 -30.5t-29.5 -22t-18 -12.5q-4 -2 -7.5 2.5t0.5 7.5q1 1 15 11t25.5 19t28.5 25t28 31.5t19.5 36.5t8.5 41q0 24 -5 24q-1 0 -13 -6t-29 -6q-22 0 -36 14.5t-14 40.5q0 25 15 42t37 17q34 0 53.5 -25.5t19.5 -63.5zM275 631 q0 -30 -10 -58t-23 -48t-32.5 -40t-33 -30t-30.5 -22t-18 -13q-4 -2 -7.5 2t1.5 8l18 14q19 13 34 26t33.5 32.5t29 43.5t10.5 48t-5 24q-2 0 -14 -6t-28 -6q-22 0 -36 14.5t-14 40.5q0 25 15 42t37 17q34 0 53.5 -25.5t19.5 -63.5z" />
<glyph unicode="&#x201e;" horiz-adv-x="352" d="M288 19q0 -30 -9.5 -58t-23 -48t-33 -40t-33 -30.5t-29.5 -22t-18 -12.5q-6 -3 -8 2t1 8q1 1 15 11t26 19t28.5 25t28 31.5t20 36.5t8.5 41q0 24 -6 24q-1 0 -12.5 -6t-28.5 -6q-23 0 -37 14.5t-14 40.5q0 25 15 42t38 17q34 0 53 -25.5t19 -63.5zM129 19q0 -30 -9.5 -58 t-23 -48t-33 -40t-33 -30.5t-29.5 -22t-18 -12.5q-4 -2 -8 2t1 8q1 1 19 13.5t33 26t33.5 33t29.5 43.5t11 48t-6 24q-2 0 -13.5 -6t-27.5 -6q-23 0 -37 14.5t-14 40.5q0 25 15 42t38 17q34 0 53 -25.5t19 -63.5z" />
<glyph unicode="&#x2022;" horiz-adv-x="418" d="M418 352q0 -74 -52 -126t-126 -52t-126 52t-52 126t52 126t126 52t126 -52t52 -126z" />
<glyph unicode="&#x2026;" horiz-adv-x="828" d="M745 66q0 -29 -16 -50.5t-43 -21.5q-21 0 -34 15t-13 38q0 28 15.5 50.5t41.5 22.5q21 0 35 -16t14 -38zM438 66q0 -29 -16 -50.5t-42 -21.5q-21 0 -34 15t-13 38q0 28 15.5 50.5t40.5 22.5q21 0 35 -16t14 -38zM131 66q0 -29 -16 -50.5t-42 -21.5q-21 0 -34 15t-13 38 q0 28 15.5 50.5t40.5 22.5q21 0 35 -16t14 -38z" />
<glyph unicode="&#x202f;" horiz-adv-x="189" />
<glyph unicode="&#x2039;" horiz-adv-x="227" d="M199 386q-20 -23 -62 -63t-62 -62q-8 -9 -8.5 -10.5t5.5 -11.5q16 -27 50.5 -76t47.5 -68q12 -18 -3 -29t-25 4q0 2 -1 3q-46 103 -84 167q-6 10 -5.5 13t9.5 12q31 33 112 147q12 16 25.5 2.5t0.5 -28.5z" />
<glyph unicode="&#x203a;" horiz-adv-x="228" d="M187 242q6 -10 5.5 -13t-9.5 -12q-31 -33 -112 -147q-12 -16 -25.5 -2.5t-0.5 28.5q20 23 62 63t62 62q8 9 8.5 10.5t-5.5 11.5q-16 27 -50.5 76t-47.5 68q-12 18 3 29t25 -4q0 -2 1 -3q46 -103 84 -167z" />
<glyph unicode="&#x205f;" horiz-adv-x="237" />
<glyph unicode="&#x20ac;" horiz-adv-x="730" d="M709 688q-32 -137 -37 -176q-2 -5 -8.5 -3t-5.5 7q9 82 -30 121l-12.5 12.5l-13 13t-11.5 11t-12.5 10.5t-13 8t-15.5 7.5t-16.5 5t-19.5 3.5t-22 1q-79 0 -138 -77.5t-97 -196.5q168 0 287 11q39 4 49 -21q7 -21 -15 -33q-13 -7 -33 -6q-115 8 -299 10q-13 -49 -21 -99 q216 -7 322 8q36 5 45 -21q7 -22 -14 -35q-13 -7 -32 -5q-137 17 -327 11q-3 -30 -3 -55q0 -27 4 -52.5t15 -52t28 -46t45 -32t64 -12.5q55 0 110.5 35.5t70.5 57.5q9 13 18 8t-4 -20q-87 -97 -200 -97q-97 0 -166.5 73t-76.5 189l-66 -6q-31 -3 -44.5 13t-0.5 32.5t44 14.5 q44 -2 67 -4q1 43 13 93q-56 -4 -82 -8q-36 -5 -45 21q-7 22 14 35q13 7 32 5q47 -6 94 -9q45 129 145.5 208t202.5 79q32 0 60.5 -11t45 -24.5t32 -24.5t25.5 -11q12 0 18 5t11 18t5 14q-1 9 8.5 6.5t5.5 -9.5z" />
<glyph unicode="&#x2122;" horiz-adv-x="777" d="M852 709q5 0 6.5 -5.5t-1 -10.5t-8.5 -5h-39q-1 0 -1 -1l-95 -366l41 -2q3 0 4 -4.5t-1 -9t-6 -4.5q-2 0 -71.5 0.5t-71.5 -0.5q-3 0 -4.5 4.5t0.5 9t7 4.5l42 2l2 2l89 339l-223 -360q-2 -3 -7 -1t-5 4l-13 359l-83 -317v-3v-5v-5q0 -15 34 -15q4 0 6 -4.5t-0.5 -9.5 t-8.5 -5q-15 0 -45.5 -0.5t-45.5 -0.5h-1q-1 1 -3 1q-4 -2 -5 5q-2 12 8 14q24 0 31 5q7 6 11.5 19.5t23.5 84.5l67 259q0 1 -1 1l-42 -2q-3 0 -5 5t0 10.5t8 5.5h97q7 0 7 -5l11 -303l190 306q1 2 7 2q34 0 94 2zM413 701q-6 -21 -34 -131q-1 -2 -9.5 -1.5t-8.5 3.5 q8 36 8 56q0 35 -14 47.5t-47 12.5h-28q-2 0 -2 -1l-97 -368l44 1q5 0 6 -5t-1.5 -10t-7.5 -5q-93 2 -139 0q-5 0 -6.5 5t1 9.5t7.5 4.5h38q1 0 1 1v1l96 367l-30 1q-26 1 -47 -13t-34 -36t-19.5 -38t-10.5 -31q0 -7 -13 -5q-6 3 -6 6q16 48 37 132q0 3 5 3h306q5 0 5 -6z " />
<glyph unicode="&#x25fc;" horiz-adv-x="435" d="M0 435h435v-435h-435v435z" />
<glyph unicode="&#xfb01;" horiz-adv-x="489" d="M503 655q0 -20 -14 -35.5t-33 -15.5t-30 12.5t-11 33.5q0 20 10 32t27 12q9 0 9 7q0 11 -20.5 18t-41.5 7q-30 0 -54.5 -8t-42 -20t-32.5 -33.5t-24 -40t-18.5 -49.5t-14.5 -52t-13.5 -57t-13.5 -56h141q69 0 118 22l-96 -326q-15 -53 -15 -62q0 -10 6 -18t17 -8 q49 0 102 86l11 -8q-9 -17 -25 -37t-48.5 -42.5t-64.5 -22.5q-26 0 -45 16.5t-19 50.5q0 18 12 60l77 273h-175q-14 -54 -37.5 -146t-37 -143.5t-31 -108.5t-31.5 -89q-44 -99 -78 -132t-79 -33q-23 0 -39.5 18t-16.5 40t12.5 36t28.5 14q19 0 31 -11.5t12 -29.5 q0 -17 -9.5 -27t-9.5 -14q0 -10 15 -10q10 0 21.5 6.5t27.5 30t27 61.5q16 55 56 251t63 287h-81l4 16h80q16 65 39 120t57 105t83 78.5t108 28.5q41 0 73.5 -21.5t32.5 -65.5z" />
<glyph unicode="&#xfb02;" horiz-adv-x="493" d="M522 742l-176 -650l-5 -17.5t-5 -18t-2 -12.5q0 -26 28 -26q44 0 97 86l11 -8q-9 -17 -25 -37t-48.5 -42.5t-64.5 -22.5q-26 0 -45 16.5t-19 50.5q0 16 17 77l126 460l3 10l6 20l4 11q3 10 6 20.5t4.5 15t2.5 11.5t1 17q0 23 -39 23q-30 0 -54.5 -8t-42 -20t-32.5 -33.5 t-24 -40t-19 -49.5t-15 -52.5t-13.5 -57t-13.5 -55.5h97q3 0 4 -4t-0.5 -8t-6.5 -4h-97q-14 -54 -37.5 -146t-37 -143.5t-31 -108.5t-31.5 -89q-44 -99 -78 -132t-79 -33q-23 0 -39.5 18t-16.5 40t12.5 36t28.5 14q19 0 31 -11.5t12 -29.5q0 -17 -9.5 -27t-9.5 -14 q0 -10 15 -10q10 0 21.5 6.5t27.5 30t27 61.5q16 55 56 251t63 287h-81q-3 0 -4 3q-1 10 8 13h80q16 65 39 120t57 105t83 78.5t108 28.5q26 0 46.5 -11.5t27.5 -11.5q28 0 51 23z" />
</font>
</defs>
</svg>
